<?xml version="1.0" encoding="UTF-8"?>
<!DOCTYPE svg PUBLIC "-//W3C//DTD SVG 1.1//EN" "http://www.w3.org/Graphics/SVG/1.1/DTD/svg11.dtd">
<svg xmlns="http://www.w3.org/2000/svg" version="1.1" width="2034px" height="773px" style="shape-rendering:geometricPrecision; text-rendering:geometricPrecision; image-rendering:optimizeQuality; fill-rule:evenodd; clip-rule:evenodd" xmlns:xlink="http://www.w3.org/1999/xlink">
<g><path style="opacity:1" fill="#000000" d="M -0.5,-0.5 C 677.5,-0.5 1355.5,-0.5 2033.5,-0.5C 2033.5,257.167 2033.5,514.833 2033.5,772.5C 1355.5,772.5 677.5,772.5 -0.5,772.5C -0.5,514.833 -0.5,257.167 -0.5,-0.5 Z"/></g>
<g><path style="opacity:1" fill="#aa98f5" d="M 471.5,227.5 C 475.167,231.833 479.167,235.833 483.5,239.5C 481.669,238.948 480.003,238.948 478.5,239.5C 478.331,238.603 477.998,237.603 477.5,236.5C 475.958,237.747 474.458,237.747 473,236.5C 472.833,236.833 472.667,237.167 472.5,237.5C 473.729,238.281 475.062,238.781 476.5,239C 474.5,239.5 472.5,240 470.5,240.5C 460.307,239.681 450.474,239.681 441,240.5C 436.722,241.912 432.222,243.745 427.5,246C 423.681,246.069 420.014,246.236 416.5,246.5C 411.846,246.328 407.846,247.828 404.5,251C 399.596,253.302 394.596,255.135 389.5,256.5C 389.953,255.542 390.619,254.708 391.5,254C 401.094,249.095 411.094,245.095 421.5,242C 424.661,237.003 429.661,234.003 436.5,233C 440.819,228.796 444.652,224.296 448,219.5C 447.012,217.08 447.345,214.747 449,212.5C 450.975,212.492 452.809,211.492 454.5,209.5C 456.256,209.36 457.922,209.86 459.5,211C 458.421,211.956 457.255,212.789 456,213.5C 455.386,215.313 455.719,215.647 457,214.5C 458.826,216.074 460.993,216.907 463.5,217C 465.303,218.871 466.636,221.038 467.5,223.5C 463.521,224.851 463.521,226.184 467.5,227.5C 468.726,226.637 470.06,226.637 471.5,227.5 Z"/></g>
<g><path style="opacity:1" fill="#a18ef1" d="M 483.5,239.5 C 505.781,244.971 525.115,255.638 541.5,271.5C 539.716,271.107 538.05,270.441 536.5,269.5C 534.915,265.513 532.582,264.847 529.5,267.5C 527.833,266.5 526.5,265.167 525.5,263.5C 522.656,265.103 519.656,265.603 516.5,265C 516.043,264.586 515.709,264.086 515.5,263.5C 517.045,261.56 519.045,260.394 521.5,260C 519.875,259.147 519.542,258.147 520.5,257C 519.307,255.905 517.973,255.072 516.5,254.5C 513.753,254.813 511.086,254.48 508.5,253.5C 509.376,252.749 510.376,252.249 511.5,252C 509.167,250.833 506.833,249.667 504.5,248.5C 503.167,249.833 501.833,249.833 500.5,248.5C 499.833,249.5 499.167,250.5 498.5,251.5C 497.289,250.726 497.289,249.893 498.5,249C 496.5,248.333 494.5,248.333 492.5,249C 493.938,249.219 495.271,249.719 496.5,250.5C 494.294,252.085 491.961,253.585 489.5,255C 491.167,255.333 492.833,255.667 494.5,256C 492.153,256.436 489.819,256.936 487.5,257.5C 480.572,254.486 473.405,253.486 466,254.5C 462.15,253.869 458.317,253.202 454.5,252.5C 449.554,253.614 444.554,253.781 439.5,253C 439.167,252.667 438.833,252.333 438.5,252C 441.186,248.524 440.853,248.024 437.5,250.5C 436.522,250.023 435.689,249.357 435,248.5C 435.613,252.095 434.446,252.429 431.5,249.5C 429.434,252.298 427.934,251.965 427,248.5C 426.692,249.308 426.192,249.975 425.5,250.5C 425.511,249.559 425.011,248.892 424,248.5C 421.909,248.579 419.742,248.913 417.5,249.5C 416.614,248.675 416.281,247.675 416.5,246.5C 420.014,246.236 423.681,246.069 427.5,246C 432.222,243.745 436.722,241.912 441,240.5C 450.474,239.681 460.307,239.681 470.5,240.5C 472.5,240 474.5,239.5 476.5,239C 475.062,238.781 473.729,238.281 472.5,237.5C 472.667,237.167 472.833,236.833 473,236.5C 474.458,237.747 475.958,237.747 477.5,236.5C 477.998,237.603 478.331,238.603 478.5,239.5C 480.003,238.948 481.669,238.948 483.5,239.5 Z"/></g>
<g><path style="opacity:1" fill="#bfa9ea" d="M 471.5,227.5 C 470.06,226.637 468.726,226.637 467.5,227.5C 463.521,226.184 463.521,224.851 467.5,223.5C 466.636,221.038 465.303,218.871 463.5,217C 460.993,216.907 458.826,216.074 457,214.5C 455.719,215.647 455.386,215.313 456,213.5C 457.255,212.789 458.421,211.956 459.5,211C 457.922,209.86 456.256,209.36 454.5,209.5C 452.809,211.492 450.975,212.492 449,212.5C 447.345,214.747 447.012,217.08 448,219.5C 444.652,224.296 440.819,228.796 436.5,233C 429.661,234.003 424.661,237.003 421.5,242C 411.094,245.095 401.094,249.095 391.5,254C 390.619,254.708 389.953,255.542 389.5,256.5C 383.314,259.422 377.648,263.089 372.5,267.5C 370.914,266.852 369.247,266.352 367.5,266C 368.056,265.617 368.389,265.117 368.5,264.5C 377.189,257.013 386.855,250.846 397.5,246C 409.558,242.967 420.892,238.3 431.5,232C 440.803,224.714 446.803,215.381 449.5,204C 452.017,203.743 454.35,204.41 456.5,206C 463.121,212.09 468.121,219.256 471.5,227.5 Z"/></g>
<g><path style="opacity:1" fill="#9e89f3" d="M 416.5,246.5 C 416.281,247.675 416.614,248.675 417.5,249.5C 419.742,248.913 421.909,248.579 424,248.5C 425.011,248.892 425.511,249.559 425.5,250.5C 426.192,249.975 426.692,249.308 427,248.5C 427.934,251.965 429.434,252.298 431.5,249.5C 434.446,252.429 435.613,252.095 435,248.5C 435.689,249.357 436.522,250.023 437.5,250.5C 440.853,248.024 441.186,248.524 438.5,252C 438.833,252.333 439.167,252.667 439.5,253C 444.554,253.781 449.554,253.614 454.5,252.5C 458.317,253.202 462.15,253.869 466,254.5C 473.405,253.486 480.572,254.486 487.5,257.5C 489.819,256.936 492.153,256.436 494.5,256C 492.833,255.667 491.167,255.333 489.5,255C 491.961,253.585 494.294,252.085 496.5,250.5C 495.271,249.719 493.938,249.219 492.5,249C 494.5,248.333 496.5,248.333 498.5,249C 497.289,249.893 497.289,250.726 498.5,251.5C 499.167,250.5 499.833,249.5 500.5,248.5C 501.833,249.833 503.167,249.833 504.5,248.5C 506.833,249.667 509.167,250.833 511.5,252C 510.376,252.249 509.376,252.749 508.5,253.5C 511.086,254.48 513.753,254.813 516.5,254.5C 515.432,255.434 514.099,255.768 512.5,255.5C 512.5,257.167 512.5,258.833 512.5,260.5C 509.482,260.335 506.482,260.502 503.5,261C 499.875,262.806 496.041,263.972 492,264.5C 489.302,263.499 486.802,263.999 484.5,266C 476.5,266.667 468.5,266.667 460.5,266C 459.975,265.308 459.308,264.808 458.5,264.5C 458.264,265.247 457.93,266.08 457.5,267C 459.5,267.333 461.5,267.667 463.5,268C 460.5,268.667 457.5,268.667 454.5,268C 454.833,267.667 455.167,267.333 455.5,267C 454.5,266.667 453.5,266.333 452.5,266C 445.115,265.801 437.782,265.135 430.5,264C 429.953,263.075 429.287,262.242 428.5,261.5C 423.568,261.665 418.568,261.999 413.5,262.5C 411.664,261.081 409.664,259.914 407.5,259C 403.889,258.87 400.389,258.703 397,258.5C 392.981,259.668 388.981,261.668 385,264.5C 385.077,263.262 384.911,262.262 384.5,261.5C 382.35,263.149 380.35,264.982 378.5,267C 376.527,267.495 374.527,267.662 372.5,267.5C 377.648,263.089 383.314,259.422 389.5,256.5C 394.596,255.135 399.596,253.302 404.5,251C 407.846,247.828 411.846,246.328 416.5,246.5 Z"/></g>
<g><path style="opacity:1" fill="#957cf2" d="M 536.5,269.5 C 538.05,270.441 539.716,271.107 541.5,271.5C 545.544,274.543 548.877,278.209 551.5,282.5C 545.216,282.074 538.883,282.74 532.5,284.5C 528.167,282.663 523.833,281.663 519.5,281.5C 518.522,281.977 517.689,282.643 517,283.5C 515.187,283.407 513.354,283.073 511.5,282.5C 508.289,284.136 504.956,285.47 501.5,286.5C 500.914,286.291 500.414,285.957 500,285.5C 497.627,288.122 495.293,288.455 493,286.5C 480.403,289.455 467.903,289.121 455.5,285.5C 452.668,287.647 450.001,287.647 447.5,285.5C 445.588,285.488 443.588,285.821 441.5,286.5C 440.304,286.154 440.304,285.654 441.5,285C 431.141,284.995 421.141,283.995 411.5,282C 409.91,280.954 408.41,279.787 407,278.5C 403.266,279.636 399.266,279.636 395,278.5C 390.2,275.612 385.034,273.612 379.5,272.5C 377.111,273.18 374.778,274.014 372.5,275C 371.194,279.63 367.86,281.964 362.5,282C 364.271,281.465 364.604,280.631 363.5,279.5C 362.583,280.127 361.583,280.461 360.5,280.5C 363.188,275.812 366.855,272.145 371.5,269.5C 374.428,269.148 377.262,268.482 380,267.5C 380.333,268.167 380.667,268.833 381,269.5C 384.333,267.5 387.667,265.5 391,263.5C 393,263.5 395,263.5 397,263.5C 399.49,263.989 401.324,265.323 402.5,267.5C 404.686,268.221 406.853,268.887 409,269.5C 409.333,269.167 409.667,268.833 410,268.5C 411.671,270.276 413.504,270.61 415.5,269.5C 430.092,271.334 443.259,273.668 455,276.5C 463.769,276.485 472.602,276.318 481.5,276C 483.659,275.088 485.825,274.255 488,273.5C 496.099,274.324 503.932,274.324 511.5,273.5C 512.5,274 513.5,274.5 514.5,275C 513.304,275.654 513.304,276.154 514.5,276.5C 515.893,275.137 517.559,274.304 519.5,274C 519.167,273.667 518.833,273.333 518.5,273C 523.167,272.667 527.833,272.333 532.5,272C 534.32,271.8 535.653,270.966 536.5,269.5 Z"/></g>
<g><path style="opacity:1" fill="#9883f3" d="M 516.5,254.5 C 517.973,255.072 519.307,255.905 520.5,257C 519.542,258.147 519.875,259.147 521.5,260C 519.045,260.394 517.045,261.56 515.5,263.5C 515.709,264.086 516.043,264.586 516.5,265C 519.656,265.603 522.656,265.103 525.5,263.5C 526.5,265.167 527.833,266.5 529.5,267.5C 532.582,264.847 534.915,265.513 536.5,269.5C 535.653,270.966 534.32,271.8 532.5,272C 527.833,272.333 523.167,272.667 518.5,273C 518.833,273.333 519.167,273.667 519.5,274C 517.559,274.304 515.893,275.137 514.5,276.5C 513.304,276.154 513.304,275.654 514.5,275C 513.5,274.5 512.5,274 511.5,273.5C 503.932,274.324 496.099,274.324 488,273.5C 485.825,274.255 483.659,275.088 481.5,276C 472.602,276.318 463.769,276.485 455,276.5C 443.259,273.668 430.092,271.334 415.5,269.5C 413.504,270.61 411.671,270.276 410,268.5C 409.667,268.833 409.333,269.167 409,269.5C 406.853,268.887 404.686,268.221 402.5,267.5C 401.324,265.323 399.49,263.989 397,263.5C 395,263.5 393,263.5 391,263.5C 387.667,265.5 384.333,267.5 381,269.5C 380.667,268.833 380.333,268.167 380,267.5C 377.262,268.482 374.428,269.148 371.5,269.5C 371.833,268.833 372.167,268.167 372.5,267.5C 374.527,267.662 376.527,267.495 378.5,267C 380.35,264.982 382.35,263.149 384.5,261.5C 384.911,262.262 385.077,263.262 385,264.5C 388.981,261.668 392.981,259.668 397,258.5C 400.389,258.703 403.889,258.87 407.5,259C 409.664,259.914 411.664,261.081 413.5,262.5C 418.568,261.999 423.568,261.665 428.5,261.5C 429.287,262.242 429.953,263.075 430.5,264C 437.782,265.135 445.115,265.801 452.5,266C 453.5,266.333 454.5,266.667 455.5,267C 455.167,267.333 454.833,267.667 454.5,268C 457.5,268.667 460.5,268.667 463.5,268C 461.5,267.667 459.5,267.333 457.5,267C 457.93,266.08 458.264,265.247 458.5,264.5C 459.308,264.808 459.975,265.308 460.5,266C 468.5,266.667 476.5,266.667 484.5,266C 486.802,263.999 489.302,263.499 492,264.5C 496.041,263.972 499.875,262.806 503.5,261C 506.482,260.502 509.482,260.335 512.5,260.5C 512.5,258.833 512.5,257.167 512.5,255.5C 514.099,255.768 515.432,255.434 516.5,254.5 Z"/></g>
<g><path style="opacity:1" fill="#8f75f1" d="M 551.5,282.5 C 556.826,288.476 561.159,295.143 564.5,302.5C 562.305,301.781 560.805,302.781 560,305.5C 559.316,303.521 559.816,301.854 561.5,300.5C 559.747,297.995 558.247,295.329 557,292.5C 555.246,294.25 553.079,294.917 550.5,294.5C 551.79,287.655 549.123,285.822 542.5,289C 542.833,289.333 543.167,289.667 543.5,290C 539.953,289.914 536.953,291.08 534.5,293.5C 533.914,293.291 533.414,292.957 533,292.5C 530.222,293.325 527.389,293.992 524.5,294.5C 523.85,294.804 523.183,295.137 522.5,295.5C 521.389,294.389 520.055,293.722 518.5,293.5C 512.883,294.394 507.383,295.728 502,297.5C 497.212,296.435 492.212,296.435 487,297.5C 478.809,295.151 470.643,295.151 462.5,297.5C 452.161,296.077 441.827,294.744 431.5,293.5C 430.833,293.833 430.167,294.167 429.5,294.5C 420.363,291.907 411.029,290.407 401.5,290C 403.167,289.667 404.833,289.333 406.5,289C 401.914,288.803 397.414,288.303 393,287.5C 391.984,288.634 391.317,288.301 391,286.5C 390.667,286.833 390.333,287.167 390,287.5C 386.071,285.954 382.071,285.621 378,286.5C 371.609,284.292 365.109,284.292 358.5,286.5C 358.702,288.989 358.202,291.323 357,293.5C 353.095,295.241 349.595,297.574 346.5,300.5C 350.006,292.998 354.673,286.332 360.5,280.5C 361.583,280.461 362.583,280.127 363.5,279.5C 364.604,280.631 364.271,281.465 362.5,282C 367.86,281.964 371.194,279.63 372.5,275C 374.778,274.014 377.111,273.18 379.5,272.5C 385.034,273.612 390.2,275.612 395,278.5C 399.266,279.636 403.266,279.636 407,278.5C 408.41,279.787 409.91,280.954 411.5,282C 421.141,283.995 431.141,284.995 441.5,285C 440.304,285.654 440.304,286.154 441.5,286.5C 443.588,285.821 445.588,285.488 447.5,285.5C 450.001,287.647 452.668,287.647 455.5,285.5C 467.903,289.121 480.403,289.455 493,286.5C 495.293,288.455 497.627,288.122 500,285.5C 500.414,285.957 500.914,286.291 501.5,286.5C 504.956,285.47 508.289,284.136 511.5,282.5C 513.354,283.073 515.187,283.407 517,283.5C 517.689,282.643 518.522,281.977 519.5,281.5C 523.833,281.663 528.167,282.663 532.5,284.5C 538.883,282.74 545.216,282.074 551.5,282.5 Z"/></g>
<g><path style="opacity:1" fill="#886aee" d="M 564.5,302.5 C 566.951,305.74 568.618,309.407 569.5,313.5C 567.292,312.106 565.792,310.106 565,307.5C 564.517,308.448 564.351,309.448 564.5,310.5C 560.486,310.666 556.486,310.499 552.5,310C 550.072,308.557 547.405,307.724 544.5,307.5C 537.75,310.768 530.75,313.268 523.5,315C 519.472,315.392 515.472,315.892 511.5,316.5C 512.164,319.015 513.497,321.181 515.5,323C 513.416,323.697 511.749,324.864 510.5,326.5C 505.125,322.871 499.125,321.538 492.5,322.5C 487.825,321.869 484.492,319.869 482.5,316.5C 481.268,317.145 479.935,317.311 478.5,317C 479.741,318.487 479.241,319.32 477,319.5C 473.849,318.907 470.682,318.407 467.5,318C 466.624,316.415 465.291,315.415 463.5,315C 459.833,314.667 456.167,314.333 452.5,314C 454.5,313.667 456.5,313.333 458.5,313C 454.452,312.566 450.452,312.566 446.5,313C 446.833,312.667 447.167,312.333 447.5,312C 445.924,311.56 444.59,310.727 443.5,309.5C 442.636,311.197 441.303,312.363 439.5,313C 432.043,315.452 424.876,314.952 418,311.5C 415.974,312.019 413.974,312.353 412,312.5C 411.333,311.833 410.667,311.167 410,310.5C 403.189,311.177 397.022,310.011 391.5,307C 391.833,306.667 392.167,306.333 392.5,306C 391.167,305.667 389.833,305.333 388.5,305C 390.49,303.249 392.823,302.249 395.5,302C 393.926,301.647 392.259,300.98 390.5,300C 391.823,299.184 392.489,298.017 392.5,296.5C 392.735,295.903 393.235,295.57 394,295.5C 394.433,297.097 395.933,298.264 398.5,299C 403.886,300.661 409.219,301.161 414.5,300.5C 417.131,300.321 419.465,300.987 421.5,302.5C 422.167,301.833 422.833,301.167 423.5,300.5C 425.444,301.189 427.444,301.689 429.5,302C 427.833,302.333 426.167,302.667 424.5,303C 425.5,303.5 426.5,304 427.5,304.5C 440.373,303.937 453.373,303.937 466.5,304.5C 467.192,305.025 467.692,305.692 468,306.5C 468.561,305.978 469.228,305.645 470,305.5C 472.135,306.127 474.302,306.627 476.5,307C 475.833,307.333 475.167,307.667 474.5,308C 477.5,308.333 480.5,308.667 483.5,309C 481.729,309.535 481.396,310.369 482.5,311.5C 484.801,310.044 487.135,309.711 489.5,310.5C 489.489,309.559 489.989,308.892 491,308.5C 493.524,309.104 496.024,309.771 498.5,310.5C 506.542,307.394 514.708,304.727 523,302.5C 524.107,302.585 525.107,302.919 526,303.5C 526.903,302.299 528.069,301.465 529.5,301C 526.051,299.752 526.384,298.418 530.5,297C 528.148,296.76 526.148,295.927 524.5,294.5C 527.389,293.992 530.222,293.325 533,292.5C 533.414,292.957 533.914,293.291 534.5,293.5C 536.953,291.08 539.953,289.914 543.5,290C 543.167,289.667 542.833,289.333 542.5,289C 549.123,285.822 551.79,287.655 550.5,294.5C 553.079,294.917 555.246,294.25 557,292.5C 558.247,295.329 559.747,297.995 561.5,300.5C 559.816,301.854 559.316,303.521 560,305.5C 560.805,302.781 562.305,301.781 564.5,302.5 Z"/></g>
<g><path style="opacity:1" fill="#8b70ef" d="M 524.5,294.5 C 526.148,295.927 528.148,296.76 530.5,297C 526.384,298.418 526.051,299.752 529.5,301C 528.069,301.465 526.903,302.299 526,303.5C 525.107,302.919 524.107,302.585 523,302.5C 514.708,304.727 506.542,307.394 498.5,310.5C 496.024,309.771 493.524,309.104 491,308.5C 489.989,308.892 489.489,309.559 489.5,310.5C 487.135,309.711 484.801,310.044 482.5,311.5C 481.396,310.369 481.729,309.535 483.5,309C 480.5,308.667 477.5,308.333 474.5,308C 475.167,307.667 475.833,307.333 476.5,307C 474.302,306.627 472.135,306.127 470,305.5C 469.228,305.645 468.561,305.978 468,306.5C 467.692,305.692 467.192,305.025 466.5,304.5C 453.373,303.937 440.373,303.937 427.5,304.5C 426.5,304 425.5,303.5 424.5,303C 426.167,302.667 427.833,302.333 429.5,302C 427.444,301.689 425.444,301.189 423.5,300.5C 422.833,301.167 422.167,301.833 421.5,302.5C 419.465,300.987 417.131,300.321 414.5,300.5C 409.219,301.161 403.886,300.661 398.5,299C 395.933,298.264 394.433,297.097 394,295.5C 393.235,295.57 392.735,295.903 392.5,296.5C 390.064,296.317 387.897,296.984 386,298.5C 384.846,297.257 383.512,296.257 382,295.5C 380.612,296.554 379.112,296.72 377.5,296C 380.15,292.793 379.984,292.293 377,294.5C 375.285,291.276 373.285,290.942 371,293.5C 369.989,293.108 369.489,292.441 369.5,291.5C 368.354,292.145 367.354,292.978 366.5,294C 361.348,294.471 356.348,296.137 351.5,299C 349.114,300.887 347.947,303.387 348,306.5C 345.82,309.667 342.986,312.001 339.5,313.5C 339.5,312.5 339.5,311.5 339.5,310.5C 342.195,307.405 344.528,304.071 346.5,300.5C 349.595,297.574 353.095,295.241 357,293.5C 358.202,291.323 358.702,288.989 358.5,286.5C 365.109,284.292 371.609,284.292 378,286.5C 382.071,285.621 386.071,285.954 390,287.5C 390.333,287.167 390.667,286.833 391,286.5C 391.317,288.301 391.984,288.634 393,287.5C 397.414,288.303 401.914,288.803 406.5,289C 404.833,289.333 403.167,289.667 401.5,290C 411.029,290.407 420.363,291.907 429.5,294.5C 430.167,294.167 430.833,293.833 431.5,293.5C 441.827,294.744 452.161,296.077 462.5,297.5C 470.643,295.151 478.809,295.151 487,297.5C 492.212,296.435 497.212,296.435 502,297.5C 507.383,295.728 512.883,294.394 518.5,293.5C 520.055,293.722 521.389,294.389 522.5,295.5C 523.183,295.137 523.85,294.804 524.5,294.5 Z"/></g>
<g><path style="opacity:1" fill="#b999ef" d="M 368.5,264.5 C 368.389,265.117 368.056,265.617 367.5,266C 369.247,266.352 370.914,266.852 372.5,267.5C 372.167,268.167 371.833,268.833 371.5,269.5C 366.855,272.145 363.188,275.812 360.5,280.5C 354.673,286.332 350.006,292.998 346.5,300.5C 344.528,304.071 342.195,307.405 339.5,310.5C 339.5,309.167 339.5,307.833 339.5,306.5C 337.784,306.629 336.117,306.962 334.5,307.5C 342.117,290.218 353.45,275.885 368.5,264.5 Z"/></g>
<g><path style="opacity:1" fill="#8363ee" d="M 392.5,296.5 C 392.489,298.017 391.823,299.184 390.5,300C 392.259,300.98 393.926,301.647 395.5,302C 392.823,302.249 390.49,303.249 388.5,305C 389.833,305.333 391.167,305.667 392.5,306C 392.167,306.333 391.833,306.667 391.5,307C 397.022,310.011 403.189,311.177 410,310.5C 410.667,311.167 411.333,311.833 412,312.5C 413.974,312.353 415.974,312.019 418,311.5C 424.876,314.952 432.043,315.452 439.5,313C 441.303,312.363 442.636,311.197 443.5,309.5C 444.59,310.727 445.924,311.56 447.5,312C 447.167,312.333 446.833,312.667 446.5,313C 450.452,312.566 454.452,312.566 458.5,313C 456.5,313.333 454.5,313.667 452.5,314C 456.167,314.333 459.833,314.667 463.5,315C 465.291,315.415 466.624,316.415 467.5,318C 470.682,318.407 473.849,318.907 477,319.5C 479.241,319.32 479.741,318.487 478.5,317C 479.935,317.311 481.268,317.145 482.5,316.5C 484.492,319.869 487.825,321.869 492.5,322.5C 485.145,325.189 480.145,330.189 477.5,337.5C 476.833,338.5 476.167,339.5 475.5,340.5C 473.358,340.764 470.691,340.764 467.5,340.5C 463.254,339.775 459.254,338.442 455.5,336.5C 454.18,338.27 452.68,338.603 451,337.5C 450.388,340.032 448.888,340.865 446.5,340C 447.167,339.667 447.833,339.333 448.5,339C 444.628,338.109 440.962,338.609 437.5,340.5C 436.914,340.291 436.414,339.957 436,339.5C 434.373,340.532 433.207,341.866 432.5,343.5C 429.987,335.145 424.987,328.645 417.5,324C 408.543,320.905 400.543,322.405 393.5,328.5C 393.038,327.12 392.038,326.453 390.5,326.5C 388.164,327.918 385.664,328.918 383,329.5C 379.934,328.287 376.767,327.453 373.5,327C 373.833,326.667 374.167,326.333 374.5,326C 369.138,324.46 364.138,322.293 359.5,319.5C 360.242,318.713 361.075,318.047 362,317.5C 362.725,319.158 363.892,319.658 365.5,319C 364.346,318.086 364.513,317.253 366,316.5C 367.526,318.585 369.36,318.585 371.5,316.5C 370.098,315.158 370.431,314.324 372.5,314C 369.624,314.889 367.124,314.056 365,311.5C 363.333,311.833 361.667,312.167 360,312.5C 359.683,310.699 359.016,310.366 358,311.5C 355.876,310.773 353.709,310.106 351.5,309.5C 348.262,311.229 345.428,313.562 343,316.5C 340.688,321.285 337.855,325.619 334.5,329.5C 334.5,328.833 334.5,328.167 334.5,327.5C 335.783,322.648 337.45,317.981 339.5,313.5C 342.986,312.001 345.82,309.667 348,306.5C 347.947,303.387 349.114,300.887 351.5,299C 356.348,296.137 361.348,294.471 366.5,294C 367.354,292.978 368.354,292.145 369.5,291.5C 369.489,292.441 369.989,293.108 371,293.5C 373.285,290.942 375.285,291.276 377,294.5C 379.984,292.293 380.15,292.793 377.5,296C 379.112,296.72 380.612,296.554 382,295.5C 383.512,296.257 384.846,297.257 386,298.5C 387.897,296.984 390.064,296.317 392.5,296.5 Z"/></g>
<g><path style="opacity:1" fill="#7e5eea" d="M 569.5,313.5 C 574.183,323.901 576.85,334.901 577.5,346.5C 576.28,340.827 574.614,335.16 572.5,329.5C 570.728,326.723 568.895,326.39 567,328.5C 565.647,327.315 564.48,325.981 563.5,324.5C 562.264,325.246 560.93,325.579 559.5,325.5C 559.649,326.552 559.483,327.552 559,328.5C 557.445,326.485 555.611,326.152 553.5,327.5C 553.977,328.478 554.643,329.311 555.5,330C 549.624,330.277 543.957,331.277 538.5,333C 539.888,333.889 539.722,334.389 538,334.5C 535.711,333.051 533.877,333.551 532.5,336C 526.966,336.421 522.966,338.921 520.5,343.5C 518.92,336.893 515.586,331.226 510.5,326.5C 511.749,324.864 513.416,323.697 515.5,323C 513.497,321.181 512.164,319.015 511.5,316.5C 515.472,315.892 519.472,315.392 523.5,315C 530.75,313.268 537.75,310.768 544.5,307.5C 547.405,307.724 550.072,308.557 552.5,310C 556.486,310.499 560.486,310.666 564.5,310.5C 564.351,309.448 564.517,308.448 565,307.5C 565.792,310.106 567.292,312.106 569.5,313.5 Z"/></g>
<g><path style="opacity:1" fill="#f4f4f4" d="M 771.5,442.5 C 772.493,433.682 772.827,424.682 772.5,415.5C 762.167,415.5 751.833,415.5 741.5,415.5C 740.508,408.018 740.175,400.352 740.5,392.5C 759.743,392.174 778.91,392.507 798,393.5C 798.667,410.833 798.667,428.167 798,445.5C 795.087,464.746 783.92,475.579 764.5,478C 755.833,478.167 747.167,478.333 738.5,478.5C 728.444,478.615 718.444,478.115 708.5,477C 692.919,472.086 683.752,461.586 681,445.5C 680.333,413.833 680.333,382.167 681,350.5C 684.244,334.926 693.41,324.759 708.5,320C 727.448,318.385 746.448,318.051 765.5,319C 783.88,321.714 794.714,332.214 798,350.5C 798.807,356.416 798.641,362.25 797.5,368C 789.5,368.667 781.5,368.667 773.5,368C 774.286,359.089 771.619,351.423 765.5,345C 763.754,344.529 762.087,343.862 760.5,343C 746.5,342.333 732.5,342.333 718.5,343C 713.01,345.123 709.176,348.956 707,354.5C 706.333,382.5 706.333,410.5 707,438.5C 707.156,445.992 710.656,451.158 717.5,454C 732.5,454.667 747.5,454.667 762.5,454C 767.944,452.058 770.944,448.225 771.5,442.5 Z"/></g>
<g><path style="opacity:1" fill="#f6f6f6" d="M 860.5,320.5 C 860.5,342.167 860.5,363.833 860.5,385.5C 882.34,385.831 904.006,385.497 925.5,384.5C 925.333,363.164 925.5,341.831 926,320.5C 929.909,319.204 934.075,318.537 938.5,318.5C 942.5,318.667 946.5,318.833 950.5,319C 951.165,345.429 951.498,371.929 951.5,398.5C 951.498,425.071 951.165,451.571 950.5,478C 942.833,478.667 935.167,478.667 927.5,478C 927,477.5 926.5,477 926,476.5C 925.5,454.169 925.333,431.836 925.5,409.5C 903.833,409.5 882.167,409.5 860.5,409.5C 860.667,432.169 860.5,454.836 860,477.5C 851.912,478.648 843.746,478.815 835.5,478C 834.336,425.571 834.169,373.071 835,320.5C 835.5,320 836,319.5 836.5,319C 844.167,318.333 851.833,318.333 859.5,319C 860.056,319.383 860.389,319.883 860.5,320.5 Z"/></g>
<g><path style="opacity:1" fill="#f5f5f5" d="M 1021.5,318.5 C 1040.88,318.064 1060.21,318.564 1079.5,320C 1096.56,324.724 1106.06,335.891 1108,353.5C 1108.67,382.833 1108.67,412.167 1108,441.5C 1106.55,463.254 1095.05,475.421 1073.5,478C 1055.83,478.667 1038.17,478.667 1020.5,478C 1003.21,474.38 993.046,463.88 990,446.5C 989.333,414.167 989.333,381.833 990,349.5C 992.02,338.267 997.853,329.767 1007.5,324C 1012.16,321.842 1016.83,320.009 1021.5,318.5 Z"/></g>
<g><path style="opacity:1" fill="#f5f4f4" d="M 1170.5,318.5 C 1186.84,318.333 1203.17,318.5 1219.5,319C 1244.02,324.692 1254.35,340.025 1250.5,365C 1242.5,365.667 1234.5,365.667 1226.5,365C 1225.85,360.17 1225.01,355.337 1224,350.5C 1222.51,346.502 1219.68,344.002 1215.5,343C 1201.43,342.053 1187.43,342.386 1173.5,344C 1167.79,347.934 1165.46,353.434 1166.5,360.5C 1165.63,367.748 1167.96,373.581 1173.5,378C 1192.06,383.379 1210.72,388.379 1229.5,393C 1242.93,397.769 1250.43,407.269 1252,421.5C 1253.34,434.053 1252.34,446.387 1249,458.5C 1242.92,470.56 1233.09,477.06 1219.5,478C 1202.83,478.667 1186.17,478.667 1169.5,478C 1145.72,471.787 1135.72,456.454 1139.5,432C 1147.83,431.5 1156.16,431.334 1164.5,431.5C 1164.25,436.58 1164.75,441.58 1166,446.5C 1167.89,450.058 1170.73,452.558 1174.5,454C 1189.57,454.951 1204.57,454.617 1219.5,453C 1222,451.833 1223.83,450 1225,447.5C 1227.9,439.619 1228.23,431.619 1226,423.5C 1224.88,421.376 1223.38,419.543 1221.5,418C 1201.88,412.511 1182.21,407.178 1162.5,402C 1150.56,397.057 1143.39,388.224 1141,375.5C 1140.33,366.5 1140.33,357.5 1141,348.5C 1144.32,332.014 1154.15,322.014 1170.5,318.5 Z"/></g>
<g><path style="opacity:1" fill="#f5f5f5" d="M 1390.5,342.5 C 1375.83,342.5 1361.17,342.5 1346.5,342.5C 1346.5,387.167 1346.5,431.833 1346.5,476.5C 1346.39,477.117 1346.06,477.617 1345.5,478C 1337.5,478.667 1329.5,478.667 1321.5,478C 1320.75,477.329 1320.41,476.496 1320.5,475.5C 1320.5,431.167 1320.5,386.833 1320.5,342.5C 1306.17,342.5 1291.83,342.5 1277.5,342.5C 1276.18,334.666 1276.18,326.833 1277.5,319C 1315.17,318.333 1352.83,318.333 1390.5,319C 1391,319.5 1391.5,320 1392,320.5C 1393.07,328.105 1392.57,335.438 1390.5,342.5 Z"/></g>
<g><path style="opacity:1" fill="#712fea" d="M 1571.5,319.5 C 1598,318.336 1624.66,318.17 1651.5,319C 1667.45,320.97 1677.95,329.47 1683,344.5C 1684.1,352.274 1684.6,360.107 1684.5,368C 1684.5,374.675 1684.17,381.175 1683.5,387.5C 1683.67,378.494 1683.5,369.494 1683,360.5C 1682.67,359.833 1682.33,359.167 1682,358.5C 1681.33,359.252 1680.5,359.586 1679.5,359.5C 1678.31,358.143 1677.31,356.643 1676.5,355C 1679.01,353.194 1681.01,350.861 1682.5,348C 1682.04,345.611 1681.37,343.277 1680.5,341C 1678.58,340.655 1676.58,339.655 1674.5,338C 1675.94,337.781 1677.27,337.281 1678.5,336.5C 1678.17,336.167 1677.83,335.833 1677.5,335.5C 1675.16,334.708 1672.5,334.042 1669.5,333.5C 1669.65,332.448 1669.48,331.448 1669,330.5C 1667.39,329.853 1665.89,329.02 1664.5,328C 1665.17,327.667 1665.83,327.333 1666.5,327C 1664.09,326.694 1661.93,325.861 1660,324.5C 1659.31,326.342 1657.47,327.509 1654.5,328C 1653.74,331.667 1652.24,332.167 1650,329.5C 1647.73,331.162 1645.4,332.829 1643,334.5C 1641.94,334.37 1641.11,333.87 1640.5,333C 1641.97,332.29 1642.64,331.124 1642.5,329.5C 1640.1,329.134 1637.76,328.467 1635.5,327.5C 1633.13,328.685 1630.8,329.851 1628.5,331C 1629.83,332.333 1629.83,333.667 1628.5,335C 1632.06,336.959 1635.56,336.792 1639,334.5C 1641.86,335.028 1644.7,335.695 1647.5,336.5C 1644.95,337.398 1642.28,338.898 1639.5,341C 1641.53,341.498 1643.53,341.331 1645.5,340.5C 1646.65,340.818 1647.48,341.484 1648,342.5C 1648.64,340.602 1649.97,340.268 1652,341.5C 1652.83,341.833 1653.67,342.167 1654.5,342.5C 1653.39,343.265 1652.72,344.265 1652.5,345.5C 1649.3,344.213 1645.97,343.547 1642.5,343.5C 1637.02,342.511 1631.36,342.178 1625.5,342.5C 1627,341.694 1628.66,341.028 1630.5,340.5C 1631.71,339.726 1631.71,338.893 1630.5,338C 1626.42,337.769 1622.42,337.102 1618.5,336C 1621.23,336.198 1623.9,336.031 1626.5,335.5C 1625.45,333.898 1626.12,333.065 1628.5,333C 1626.83,332 1625.5,330.667 1624.5,329C 1618.68,327.802 1612.68,327.135 1606.5,327C 1605.11,328.02 1603.61,328.853 1602,329.5C 1601.53,331.246 1600.86,332.913 1600,334.5C 1597.96,334.182 1595.79,334.015 1593.5,334C 1590.73,330.793 1589.06,330.959 1588.5,334.5C 1586.88,333.846 1585.22,333.346 1583.5,333C 1585.3,332.683 1585.63,332.016 1584.5,331C 1587.76,330.229 1590.76,328.896 1593.5,327C 1591.7,326.363 1590.36,325.197 1589.5,323.5C 1589.6,324.616 1589.1,325.616 1588,326.5C 1584.22,326.847 1580.89,328.181 1578,330.5C 1576.8,328.588 1575.13,327.255 1573,326.5C 1572.51,325.207 1572.34,323.873 1572.5,322.5C 1576.05,322.905 1579.38,322.405 1582.5,321C 1579.04,319.585 1575.38,319.085 1571.5,319.5 Z"/></g>
<g><path style="opacity:1" fill="#ae82e8" d="M 339.5,310.5 C 339.5,311.5 339.5,312.5 339.5,313.5C 337.45,317.981 335.783,322.648 334.5,327.5C 332.418,327.376 330.918,326.376 330,324.5C 327.853,326.479 326.353,328.813 325.5,331.5C 326.942,322.833 329.942,314.833 334.5,307.5C 336.117,306.962 337.784,306.629 339.5,306.5C 339.5,307.833 339.5,309.167 339.5,310.5 Z"/></g>
<g><path style="opacity:1" fill="#f7f5f9" d="M 492.5,322.5 C 499.125,321.538 505.125,322.871 510.5,326.5C 515.586,331.226 518.92,336.893 520.5,343.5C 520.232,345.099 520.566,346.432 521.5,347.5C 522.507,356.448 520.841,364.782 516.5,372.5C 511.146,380.838 503.48,384.838 493.5,384.5C 482.109,379.762 476.109,371.095 475.5,358.5C 475.175,351.378 475.841,344.378 477.5,337.5C 480.145,330.189 485.145,325.189 492.5,322.5 Z"/></g>
<g><path style="opacity:1" fill="#f7f5f9" d="M 432.5,343.5 C 432.909,350.964 432.243,358.297 430.5,365.5C 428.942,370.284 426.609,374.618 423.5,378.5C 418.998,381.669 413.998,383.669 408.5,384.5C 404.354,384.342 400.688,383.008 397.5,380.5C 395.5,378.833 393.5,377.167 391.5,375.5C 388.534,370.61 386.534,365.277 385.5,359.5C 383.7,347.917 386.367,337.584 393.5,328.5C 400.543,322.405 408.543,320.905 417.5,324C 424.987,328.645 429.987,335.145 432.5,343.5 Z"/></g>
<g><path style="opacity:1" fill="#7752ed" d="M 577.5,346.5 C 577.5,349.167 577.5,351.833 577.5,354.5C 576.144,351.423 575.311,348.09 575,344.5C 574.751,345.624 574.251,346.624 573.5,347.5C 572.167,346.5 570.833,345.5 569.5,344.5C 568.571,345.689 568.238,347.022 568.5,348.5C 563.65,348.702 558.65,348.868 553.5,349C 554.167,349.333 554.833,349.667 555.5,350C 550.482,350.034 545.982,351.534 542,354.5C 541.05,353.978 540.216,353.311 539.5,352.5C 539.002,353.603 538.669,354.603 538.5,355.5C 531.62,354.128 526.453,356.461 523,362.5C 522.946,355.431 522.446,350.431 521.5,347.5C 520.566,346.432 520.232,345.099 520.5,343.5C 522.966,338.921 526.966,336.421 532.5,336C 533.877,333.551 535.711,333.051 538,334.5C 539.722,334.389 539.888,333.889 538.5,333C 543.957,331.277 549.624,330.277 555.5,330C 554.643,329.311 553.977,328.478 553.5,327.5C 555.611,326.152 557.445,326.485 559,328.5C 559.483,327.552 559.649,326.552 559.5,325.5C 560.93,325.579 562.264,325.246 563.5,324.5C 564.48,325.981 565.647,327.315 567,328.5C 568.895,326.39 570.728,326.723 572.5,329.5C 574.614,335.16 576.28,340.827 577.5,346.5 Z"/></g>
<g><path style="opacity:1" fill="#7b54ef" d="M 393.5,328.5 C 386.367,337.584 383.7,347.917 385.5,359.5C 384.93,356.562 384.263,354.228 383.5,352.5C 379.644,352.158 376.644,350.324 374.5,347C 374.833,346.667 375.167,346.333 375.5,346C 372.716,345.108 370.05,343.942 367.5,342.5C 366.284,343.002 365.117,343.335 364,343.5C 359.667,342.167 355.333,340.833 351,339.5C 350.667,340.167 350.333,340.833 350,341.5C 349.333,340.167 349.333,338.833 350,337.5C 353.475,335.784 353.975,333.617 351.5,331C 351.833,330.667 352.167,330.333 352.5,330C 347.516,327.506 343.016,328.339 339,332.5C 336.276,335.961 334.609,339.961 334,344.5C 332.641,345.365 331.474,346.365 330.5,347.5C 330.5,346.5 330.5,345.5 330.5,344.5C 330.878,339.212 332.212,334.212 334.5,329.5C 337.855,325.619 340.688,321.285 343,316.5C 345.428,313.562 348.262,311.229 351.5,309.5C 353.709,310.106 355.876,310.773 358,311.5C 359.016,310.366 359.683,310.699 360,312.5C 361.667,312.167 363.333,311.833 365,311.5C 367.124,314.056 369.624,314.889 372.5,314C 370.431,314.324 370.098,315.158 371.5,316.5C 369.36,318.585 367.526,318.585 366,316.5C 364.513,317.253 364.346,318.086 365.5,319C 363.892,319.658 362.725,319.158 362,317.5C 361.075,318.047 360.242,318.713 359.5,319.5C 364.138,322.293 369.138,324.46 374.5,326C 374.167,326.333 373.833,326.667 373.5,327C 376.767,327.453 379.934,328.287 383,329.5C 385.664,328.918 388.164,327.918 390.5,326.5C 392.038,326.453 393.038,327.12 393.5,328.5 Z"/></g>
<g><path style="opacity:1" fill="#732cf4" d="M 1571.5,319.5 C 1575.38,319.085 1579.04,319.585 1582.5,321C 1579.38,322.405 1576.05,322.905 1572.5,322.5C 1572.34,323.873 1572.51,325.207 1573,326.5C 1575.13,327.255 1576.8,328.588 1578,330.5C 1580.89,328.181 1584.22,326.847 1588,326.5C 1589.1,325.616 1589.6,324.616 1589.5,323.5C 1590.36,325.197 1591.7,326.363 1593.5,327C 1590.76,328.896 1587.76,330.229 1584.5,331C 1585.63,332.016 1585.3,332.683 1583.5,333C 1585.22,333.346 1586.88,333.846 1588.5,334.5C 1589.06,330.959 1590.73,330.793 1593.5,334C 1595.79,334.015 1597.96,334.182 1600,334.5C 1600.86,332.913 1601.53,331.246 1602,329.5C 1603.61,328.853 1605.11,328.02 1606.5,327C 1612.68,327.135 1618.68,327.802 1624.5,329C 1625.5,330.667 1626.83,332 1628.5,333C 1626.12,333.065 1625.45,333.898 1626.5,335.5C 1623.9,336.031 1621.23,336.198 1618.5,336C 1622.42,337.102 1626.42,337.769 1630.5,338C 1631.71,338.893 1631.71,339.726 1630.5,340.5C 1628.66,341.028 1627,341.694 1625.5,342.5C 1615.83,342.5 1606.17,342.5 1596.5,342.5C 1596.5,358.167 1596.5,373.833 1596.5,389.5C 1595.78,389.082 1595.28,388.416 1595,387.5C 1594.67,379.833 1594.33,372.167 1594,364.5C 1593.69,365.308 1593.19,365.975 1592.5,366.5C 1591.21,365.902 1589.87,365.402 1588.5,365C 1589.83,364.333 1589.83,363.667 1588.5,363C 1583.63,362.116 1578.96,360.616 1574.5,358.5C 1573.68,361.447 1573.18,364.447 1573,367.5C 1572.67,367.167 1572.33,366.833 1572,366.5C 1571.5,350.837 1571.33,335.17 1571.5,319.5 Z"/></g>
<g><path style="opacity:1" fill="#9057c6" d="M 334.5,327.5 C 334.5,328.167 334.5,328.833 334.5,329.5C 332.212,334.212 330.878,339.212 330.5,344.5C 329.732,345.263 329.232,346.263 329,347.5C 327.838,345.176 326.671,342.842 325.5,340.5C 325.167,341 324.833,341.5 324.5,342C 322.864,349.067 322.197,356.234 322.5,363.5C 322.5,388.167 322.5,412.833 322.5,437.5C 322.5,463.167 322.5,488.833 322.5,514.5C 321.335,458.668 321.168,402.668 322,346.5C 322.41,341.199 323.577,336.199 325.5,331.5C 326.353,328.813 327.853,326.479 330,324.5C 330.918,326.376 332.418,327.376 334.5,327.5 Z"/></g>
<g><path style="opacity:1" fill="#6a2ae6" d="M 1743.5,477.5 C 1743.67,443.165 1743.5,408.832 1743,374.5C 1742.66,370.568 1741.5,366.901 1739.5,363.5C 1738.57,362.359 1737.74,362.359 1737,363.5C 1736.67,362.167 1736.33,360.833 1736,359.5C 1735.29,360.973 1734.12,361.64 1732.5,361.5C 1730.97,358.452 1728.8,355.785 1726,353.5C 1724.79,355.13 1723.95,356.964 1723.5,359C 1723.86,360.652 1724.19,362.318 1724.5,364C 1721.76,371.13 1721.09,371.13 1722.5,364C 1721.45,360.001 1720.62,355.834 1720,351.5C 1718.61,393.485 1718.11,435.485 1718.5,477.5C 1717.17,424.998 1717.17,372.332 1718.5,319.5C 1726.83,318.167 1735.17,318.167 1743.5,319.5C 1744.83,372.332 1744.83,424.998 1743.5,477.5 Z"/></g>
<g><path style="opacity:1" fill="#754cee" d="M 383.5,352.5 C 383.665,355.518 383.498,358.518 383,361.5C 382.818,358.774 382.318,356.107 381.5,353.5C 380.328,353.919 379.328,354.585 378.5,355.5C 379.5,356.833 380.5,358.167 381.5,359.5C 381,360.881 380,361.547 378.5,361.5C 374.331,361.319 370.664,359.986 367.5,357.5C 365.291,358.106 363.124,358.773 361,359.5C 359.167,357 357,354.833 354.5,353C 349.846,351.184 345.013,350.017 340,349.5C 338.54,351.422 336.873,352.089 335,351.5C 334.83,353.715 334.163,355.715 333,357.5C 332.667,354.833 332.333,352.167 332,349.5C 331.617,350.056 331.117,350.389 330.5,350.5C 330.5,349.833 330.5,349.167 330.5,348.5C 330.5,348.167 330.5,347.833 330.5,347.5C 331.474,346.365 332.641,345.365 334,344.5C 334.609,339.961 336.276,335.961 339,332.5C 343.016,328.339 347.516,327.506 352.5,330C 352.167,330.333 351.833,330.667 351.5,331C 353.975,333.617 353.475,335.784 350,337.5C 349.333,338.833 349.333,340.167 350,341.5C 350.333,340.833 350.667,340.167 351,339.5C 355.333,340.833 359.667,342.167 364,343.5C 365.117,343.335 366.284,343.002 367.5,342.5C 370.05,343.942 372.716,345.108 375.5,346C 375.167,346.333 374.833,346.667 374.5,347C 376.644,350.324 379.644,352.158 383.5,352.5 Z"/></g>
<g><path style="opacity:1" fill="#712cf4" d="M 1679.5,359.5 C 1678.25,361.901 1676.25,363.401 1673.5,364C 1675.04,365.11 1675.7,366.61 1675.5,368.5C 1672.84,368.838 1670.51,368.171 1668.5,366.5C 1669.6,364.606 1670.93,363.939 1672.5,364.5C 1670.06,361.24 1667.06,360.24 1663.5,361.5C 1663.66,360.127 1663.49,358.793 1663,357.5C 1662.67,357.833 1662.33,358.167 1662,358.5C 1661.33,357.167 1660.67,355.833 1660,354.5C 1659.72,355.416 1659.22,356.082 1658.5,356.5C 1657.8,352.103 1655.8,348.436 1652.5,345.5C 1652.72,344.265 1653.39,343.265 1654.5,342.5C 1653.67,342.167 1652.83,341.833 1652,341.5C 1649.97,340.268 1648.64,340.602 1648,342.5C 1647.48,341.484 1646.65,340.818 1645.5,340.5C 1643.53,341.331 1641.53,341.498 1639.5,341C 1642.28,338.898 1644.95,337.398 1647.5,336.5C 1644.7,335.695 1641.86,335.028 1639,334.5C 1635.56,336.792 1632.06,336.959 1628.5,335C 1629.83,333.667 1629.83,332.333 1628.5,331C 1630.8,329.851 1633.13,328.685 1635.5,327.5C 1637.76,328.467 1640.1,329.134 1642.5,329.5C 1642.64,331.124 1641.97,332.29 1640.5,333C 1641.11,333.87 1641.94,334.37 1643,334.5C 1645.4,332.829 1647.73,331.162 1650,329.5C 1652.24,332.167 1653.74,331.667 1654.5,328C 1657.47,327.509 1659.31,326.342 1660,324.5C 1661.93,325.861 1664.09,326.694 1666.5,327C 1665.83,327.333 1665.17,327.667 1664.5,328C 1665.89,329.02 1667.39,329.853 1669,330.5C 1669.48,331.448 1669.65,332.448 1669.5,333.5C 1672.5,334.042 1675.16,334.708 1677.5,335.5C 1677.83,335.833 1678.17,336.167 1678.5,336.5C 1677.27,337.281 1675.94,337.781 1674.5,338C 1676.58,339.655 1678.58,340.655 1680.5,341C 1681.37,343.277 1682.04,345.611 1682.5,348C 1681.01,350.861 1679.01,353.194 1676.5,355C 1677.31,356.643 1678.31,358.143 1679.5,359.5 Z"/></g>
<g><path style="opacity:1" fill="#722eee" d="M 1502.5,354.5 C 1502.5,354.833 1502.5,355.167 1502.5,355.5C 1499.79,355.313 1499.12,354.146 1500.5,352C 1499.41,348.946 1497.91,346.113 1496,343.5C 1493.41,343.811 1490.58,344.311 1487.5,345C 1486.96,347.109 1485.96,347.609 1484.5,346.5C 1483.83,347.833 1483.17,349.167 1482.5,350.5C 1480.38,349.128 1479.38,349.795 1479.5,352.5C 1480.55,352.351 1481.55,352.517 1482.5,353C 1481.17,355.667 1481.17,358.333 1482.5,361C 1480.84,362.444 1480.18,364.278 1480.5,366.5C 1478.47,360.571 1476.3,354.571 1474,348.5C 1471.83,352.375 1470.33,356.375 1469.5,360.5C 1469.56,354.052 1468.73,354.052 1467,360.5C 1464.98,361.991 1463.31,361.658 1462,359.5C 1461.67,359.833 1461.33,360.167 1461,360.5C 1460.32,358.641 1459.32,356.974 1458,355.5C 1454.93,356.307 1451.76,356.307 1448.5,355.5C 1448.74,358.226 1447.9,360.559 1446,362.5C 1445.67,361.5 1445.33,360.5 1445,359.5C 1444.8,361.32 1443.97,362.653 1442.5,363.5C 1447.43,349.205 1452.26,334.872 1457,320.5C 1457.75,319.874 1458.58,319.374 1459.5,319C 1469.93,318.05 1480.27,318.383 1490.5,320C 1494.43,331.572 1498.43,343.072 1502.5,354.5 Z"/></g>
<g><path style="opacity:1" fill="#010101" d="M 1026.5,342.5 C 1041.17,342.333 1055.84,342.5 1070.5,343C 1075.6,344.433 1079.1,347.6 1081,352.5C 1082.64,382.105 1082.98,411.772 1082,441.5C 1081.06,446.77 1078.22,450.604 1073.5,453C 1057.9,454.62 1042.23,454.953 1026.5,454C 1022.17,452.427 1019.01,449.593 1017,445.5C 1015.37,415.207 1015.04,384.873 1016,354.5C 1017.94,349.068 1021.44,345.068 1026.5,342.5 Z"/></g>
<g><path style="opacity:1" fill="#000001" d="M 1642.5,343.5 C 1645.97,343.547 1649.3,344.213 1652.5,345.5C 1655.8,348.436 1657.8,352.103 1658.5,356.5C 1658.67,364.84 1658.5,373.173 1658,381.5C 1655.97,388.19 1651.47,392.023 1644.5,393C 1628.84,393.5 1613.17,393.667 1597.5,393.5C 1597.5,376.833 1597.5,360.167 1597.5,343.5C 1612.5,343.5 1627.5,343.5 1642.5,343.5 Z"/></g>
<g><path style="opacity:1" fill="#6e48ea" d="M 577.5,354.5 C 577.5,357.167 577.5,359.833 577.5,362.5C 576.206,361.71 575.039,360.71 574,359.5C 570.94,360.602 570.107,359.602 571.5,356.5C 571.167,355.5 570.5,354.833 569.5,354.5C 568.289,355.274 568.289,356.107 569.5,357C 568.833,357.667 568.167,358.333 567.5,359C 563.332,359.375 559.332,360.375 555.5,362C 557.441,363.903 559.774,364.736 562.5,364.5C 562.671,367.797 562.005,368.131 560.5,365.5C 557.237,366.369 556.904,367.703 559.5,369.5C 559.291,370.086 558.957,370.586 558.5,371C 556.109,371.287 553.776,371.787 551.5,372.5C 550.158,371.098 549.324,371.431 549,373.5C 547.594,372.332 546.428,372.665 545.5,374.5C 542.911,371.895 540.411,371.895 538,374.5C 537.439,373.978 536.772,373.645 536,373.5C 533.588,375.451 531.255,376.785 529,377.5C 525.979,376.144 522.979,375.81 520,376.5C 518.968,374.973 517.801,373.64 516.5,372.5C 520.841,364.782 522.507,356.448 521.5,347.5C 522.446,350.431 522.946,355.431 523,362.5C 526.453,356.461 531.62,354.128 538.5,355.5C 538.669,354.603 539.002,353.603 539.5,352.5C 540.216,353.311 541.05,353.978 542,354.5C 545.982,351.534 550.482,350.034 555.5,350C 554.833,349.667 554.167,349.333 553.5,349C 558.65,348.868 563.65,348.702 568.5,348.5C 568.238,347.022 568.571,345.689 569.5,344.5C 570.833,345.5 572.167,346.5 573.5,347.5C 574.251,346.624 574.751,345.624 575,344.5C 575.311,348.09 576.144,351.423 577.5,354.5 Z"/></g>
<g><path style="opacity:1" fill="#7853ed" d="M 475.5,340.5 C 474.646,346.121 474.313,351.788 474.5,357.5C 470.198,356.721 465.531,356.387 460.5,356.5C 460.5,357.5 460.5,358.5 460.5,359.5C 458.516,359.617 456.85,358.95 455.5,357.5C 451.031,358.785 446.531,359.785 442,360.5C 441.667,360.167 441.333,359.833 441,359.5C 438.758,360.937 436.425,362.937 434,365.5C 433.667,364.167 433.333,362.833 433,361.5C 432.8,363.32 431.966,364.653 430.5,365.5C 432.243,358.297 432.909,350.964 432.5,343.5C 433.207,341.866 434.373,340.532 436,339.5C 436.414,339.957 436.914,340.291 437.5,340.5C 440.962,338.609 444.628,338.109 448.5,339C 447.833,339.333 447.167,339.667 446.5,340C 448.888,340.865 450.388,340.032 451,337.5C 452.68,338.603 454.18,338.27 455.5,336.5C 459.254,338.442 463.254,339.775 467.5,340.5C 470.691,340.764 473.358,340.764 475.5,340.5 Z"/></g>
<g><path style="opacity:1" fill="#d7ccf9" d="M 477.5,337.5 C 475.841,344.378 475.175,351.378 475.5,358.5C 474.833,358.5 474.5,358.167 474.5,357.5C 474.313,351.788 474.646,346.121 475.5,340.5C 476.167,339.5 476.833,338.5 477.5,337.5 Z"/></g>
<g><path style="opacity:1" fill="#764ce1" d="M 406.5,346.5 C 415.13,346.628 417.964,350.961 415,359.5C 412.441,362.349 409.274,363.183 405.5,362C 402.682,358.662 401.849,354.829 403,350.5C 404.102,349.051 405.269,347.718 406.5,346.5 Z"/></g>
<g><path style="opacity:1" fill="#7750e3" d="M 495.5,346.5 C 503.071,346.263 505.904,349.93 504,357.5C 502.427,362.035 499.261,363.535 494.5,362C 491.572,358.743 490.738,354.909 492,350.5C 492.69,348.65 493.856,347.316 495.5,346.5 Z"/></g>
<g><path style="opacity:1" fill="#3c1e83" d="M 1502.5,354.5 C 1504.28,357.505 1505.28,360.838 1505.5,364.5C 1503.93,361.785 1502.93,358.785 1502.5,355.5C 1502.5,355.167 1502.5,354.833 1502.5,354.5 Z"/></g>
<g><path style="opacity:1" fill="#bc67f7" d="M 330.5,344.5 C 330.5,345.5 330.5,346.5 330.5,347.5C 330.5,347.833 330.5,348.167 330.5,348.5C 329.669,362.327 329.169,376.327 329,390.5C 328.899,385.054 328.232,379.721 327,374.5C 326.667,375.833 326.333,377.167 326,378.5C 325.113,371.856 324.446,365.189 324,358.5C 323.802,360.382 323.302,362.048 322.5,363.5C 322.197,356.234 322.864,349.067 324.5,342C 324.833,341.5 325.167,341 325.5,340.5C 326.671,342.842 327.838,345.176 329,347.5C 329.232,346.263 329.732,345.263 330.5,344.5 Z"/></g>
<g><path style="opacity:1" fill="#010004" d="M 1480.5,366.5 C 1485.35,382.897 1490.35,399.231 1495.5,415.5C 1480.87,417.484 1465.87,418.15 1450.5,417.5C 1456.63,398.282 1462.96,379.282 1469.5,360.5C 1470.33,356.375 1471.83,352.375 1474,348.5C 1476.3,354.571 1478.47,360.571 1480.5,366.5 Z"/></g>
<g><path style="opacity:1" fill="#6c40ec" d="M 383.5,352.5 C 384.263,354.228 384.93,356.562 385.5,359.5C 386.534,365.277 388.534,370.61 391.5,375.5C 389.044,376.688 386.711,378.021 384.5,379.5C 386.5,380.167 388.5,380.833 390.5,381.5C 390.833,382.167 391.167,382.833 391.5,383.5C 390.372,384.262 389.205,384.929 388,385.5C 386.429,384.796 384.762,383.463 383,381.5C 382.667,381.833 382.333,382.167 382,382.5C 380.416,381.139 378.582,380.472 376.5,380.5C 376.587,383.598 376.087,383.932 375,381.5C 374.667,382.167 374.333,382.833 374,383.5C 372.62,380.942 371.12,380.942 369.5,383.5C 366.833,382.5 366.833,381.5 369.5,380.5C 367.922,379.702 366.256,379.202 364.5,379C 367.544,378.641 367.878,377.974 365.5,377C 365.833,376.667 366.167,376.333 366.5,376C 364.245,377.48 361.912,378.314 359.5,378.5C 357.11,380.156 354.61,380.822 352,380.5C 352.077,379.262 351.911,378.262 351.5,377.5C 347.617,382.932 346.951,382.765 349.5,377C 348.042,375.248 346.709,373.415 345.5,371.5C 344.749,372.376 344.249,373.376 344,374.5C 343.333,371.833 342.667,371.833 342,374.5C 340.667,371.833 339.333,371.833 338,374.5C 337.075,373.953 336.242,373.287 335.5,372.5C 336.748,369.506 336.748,366.506 335.5,363.5C 334.868,366.102 333.868,368.436 332.5,370.5C 332.665,366.818 332.499,363.152 332,359.5C 331.814,362.036 331.314,364.369 330.5,366.5C 330.5,361.167 330.5,355.833 330.5,350.5C 331.117,350.389 331.617,350.056 332,349.5C 332.333,352.167 332.667,354.833 333,357.5C 334.163,355.715 334.83,353.715 335,351.5C 336.873,352.089 338.54,351.422 340,349.5C 345.013,350.017 349.846,351.184 354.5,353C 357,354.833 359.167,357 361,359.5C 363.124,358.773 365.291,358.106 367.5,357.5C 370.664,359.986 374.331,361.319 378.5,361.5C 380,361.547 381,360.881 381.5,359.5C 380.5,358.167 379.5,356.833 378.5,355.5C 379.328,354.585 380.328,353.919 381.5,353.5C 382.318,356.107 382.818,358.774 383,361.5C 383.498,358.518 383.665,355.518 383.5,352.5 Z"/></g>
<g><path style="opacity:1" fill="#6f46ec" d="M 474.5,357.5 C 474.5,358.167 474.833,358.5 475.5,358.5C 476.109,371.095 482.109,379.762 493.5,384.5C 493.062,384.435 492.728,384.601 492.5,385C 494.595,385.556 494.762,386.056 493,386.5C 490.26,386.239 487.594,386.239 485,386.5C 483.983,383.972 482.816,383.972 481.5,386.5C 480.904,385.284 480.737,383.951 481,382.5C 479.251,383.299 477.918,382.632 477,380.5C 476.586,380.957 476.086,381.291 475.5,381.5C 474.193,380.184 472.693,379.184 471,378.5C 470.667,379.167 470.333,379.833 470,380.5C 468.403,380.36 466.903,380.36 465.5,380.5C 464.23,381.562 463.063,382.562 462,383.5C 460.846,381.043 459.512,381.043 458,383.5C 456.155,381.913 454.155,380.579 452,379.5C 447.366,379.696 442.866,381.03 438.5,383.5C 433.492,382.498 428.492,380.831 423.5,378.5C 426.609,374.618 428.942,370.284 430.5,365.5C 431.966,364.653 432.8,363.32 433,361.5C 433.333,362.833 433.667,364.167 434,365.5C 436.425,362.937 438.758,360.937 441,359.5C 441.333,359.833 441.667,360.167 442,360.5C 446.531,359.785 451.031,358.785 455.5,357.5C 456.85,358.95 458.516,359.617 460.5,359.5C 460.5,358.5 460.5,357.5 460.5,356.5C 465.531,356.387 470.198,356.721 474.5,357.5 Z"/></g>
<g><path style="opacity:1" fill="#240b5d" d="M 1625.5,342.5 C 1631.36,342.178 1637.02,342.511 1642.5,343.5C 1627.5,343.5 1612.5,343.5 1597.5,343.5C 1597.5,360.167 1597.5,376.833 1597.5,393.5C 1596.57,392.432 1596.23,391.099 1596.5,389.5C 1596.5,373.833 1596.5,358.167 1596.5,342.5C 1606.17,342.5 1615.83,342.5 1625.5,342.5 Z"/></g>
<g><path style="opacity:1" fill="#555655" d="M 860.5,320.5 C 861.497,341.66 861.831,362.993 861.5,384.5C 882.833,384.5 904.167,384.5 925.5,384.5C 904.006,385.497 882.34,385.831 860.5,385.5C 860.5,363.833 860.5,342.167 860.5,320.5 Z"/></g>
<g><path style="opacity:1" fill="#6324eb" d="M 1502.5,355.5 C 1502.93,358.785 1503.93,361.785 1505.5,364.5C 1510.39,376.504 1514.73,388.837 1518.5,401.5C 1518.53,404.916 1519.53,407.916 1521.5,410.5C 1523.14,415.081 1524.81,419.748 1526.5,424.5C 1522.02,421.87 1519.85,417.87 1520,412.5C 1513.08,416.055 1505.91,418.722 1498.5,420.5C 1499.06,418.092 1499.56,415.759 1500,413.5C 1499,413.167 1498,412.833 1497,412.5C 1496.52,413.448 1496.35,414.448 1496.5,415.5C 1496.17,415.5 1495.83,415.5 1495.5,415.5C 1490.35,399.231 1485.35,382.897 1480.5,366.5C 1480.18,364.278 1480.84,362.444 1482.5,361C 1481.17,358.333 1481.17,355.667 1482.5,353C 1481.55,352.517 1480.55,352.351 1479.5,352.5C 1479.38,349.795 1480.38,349.128 1482.5,350.5C 1483.17,349.167 1483.83,347.833 1484.5,346.5C 1485.96,347.609 1486.96,347.109 1487.5,345C 1490.58,344.311 1493.41,343.811 1496,343.5C 1497.91,346.113 1499.41,348.946 1500.5,352C 1499.12,354.146 1499.79,355.313 1502.5,355.5 Z"/></g>
<g><path style="opacity:1" fill="#3c3c3c" d="M 1390.5,342.5 C 1376.34,343.496 1362.01,343.829 1347.5,343.5C 1347.83,388.003 1347.5,432.336 1346.5,476.5C 1346.5,431.833 1346.5,387.167 1346.5,342.5C 1361.17,342.5 1375.83,342.5 1390.5,342.5 Z"/></g>
<g><path style="opacity:1" fill="#6437e6" d="M 574.5,377.5 C 574.938,377.435 575.272,377.601 575.5,378C 574.484,378.519 573.818,379.353 573.5,380.5C 576.147,383.214 576.147,385.88 573.5,388.5C 575.023,390.586 574.69,392.252 572.5,393.5C 571.833,392.167 571.167,390.833 570.5,389.5C 569.629,391.058 568.629,392.725 567.5,394.5C 565.956,395.622 564.623,395.289 563.5,393.5C 563.002,394.603 562.669,395.603 562.5,396.5C 561.833,395.5 561.167,394.5 560.5,393.5C 560.002,394.603 559.669,395.603 559.5,396.5C 558.522,396.023 557.689,395.357 557,394.5C 554.848,396.816 552.348,397.15 549.5,395.5C 547.889,397.535 546.056,398.202 544,397.5C 538.57,400.147 532.736,401.481 526.5,401.5C 526.719,400.325 526.386,399.325 525.5,398.5C 523.45,399.077 522.45,400.41 522.5,402.5C 520.322,401.796 518.322,401.463 516.5,401.5C 515.5,402.167 514.5,402.833 513.5,403.5C 506.68,402.718 499.68,403.384 492.5,405.5C 490.853,406.278 489.52,407.444 488.5,409C 489.76,410.113 490.927,410.28 492,409.5C 493.44,412.335 495.273,412.835 497.5,411C 496.552,410.517 495.552,410.351 494.5,410.5C 494.5,409.5 494.5,408.5 494.5,407.5C 498.014,407.236 501.681,407.069 505.5,407C 504.167,406.667 502.833,406.333 501.5,406C 503.902,405.322 506.068,405.822 508,407.5C 508.381,406.518 509.214,405.852 510.5,405.5C 511.167,405.667 511.833,405.833 512.5,406C 509.833,408 509.833,410 512.5,412C 511.833,412.333 511.167,412.667 510.5,413C 514.238,412.474 517.904,412.474 521.5,413C 520.421,413.956 519.255,414.789 518,415.5C 516.026,415.353 514.026,415.019 512,414.5C 503.644,415.042 495.978,416.042 489,417.5C 484.128,417.765 479.628,416.598 475.5,414C 477.814,412.602 480.147,412.435 482.5,413.5C 483.696,413.154 483.696,412.654 482.5,412C 484.531,411.368 486.198,410.201 487.5,408.5C 484.972,407.184 484.972,406.017 487.5,405C 485.667,404.5 484.5,403.333 484,401.5C 482.693,402.772 481.193,403.772 479.5,404.5C 478.754,405.736 478.421,407.07 478.5,408.5C 476.856,408.714 475.356,408.38 474,407.5C 472.47,408.92 470.637,409.92 468.5,410.5C 470.353,411.76 472.186,411.76 474,410.5C 474.612,412.237 473.946,413.237 472,413.5C 469.566,412.678 467.066,412.344 464.5,412.5C 468.159,396.497 461.826,390.497 445.5,394.5C 445.44,393.957 445.107,393.624 444.5,393.5C 442.941,394.074 441.441,394.74 440,395.5C 439.667,398.833 439.333,402.167 439,405.5C 435.893,401.642 432.726,401.642 429.5,405.5C 430.376,406.251 431.376,406.751 432.5,407C 431.874,407.75 431.374,408.584 431,409.5C 426.638,408.105 422.304,407.438 418,407.5C 408.982,412.061 399.816,412.561 390.5,409C 390.957,408.586 391.291,408.086 391.5,407.5C 390.753,407.264 389.92,406.93 389,406.5C 388.239,403.947 387.406,401.447 386.5,399C 387.308,398.692 387.975,398.192 388.5,397.5C 387.135,396.059 385.635,394.726 384,393.5C 384,394.833 384,396.167 384,397.5C 382.982,395.436 381.649,395.102 380,396.5C 377.849,396.235 376.182,395.235 375,393.5C 371.93,394.492 368.93,394.159 366,392.5C 364.612,393.554 363.112,393.72 361.5,393C 359.016,392.071 356.683,390.571 354.5,388.5C 352.775,390.748 351.442,390.248 350.5,387C 351.676,384.699 353.01,384.366 354.5,386C 354.167,386.333 353.833,386.667 353.5,387C 356.112,387.741 357.778,386.741 358.5,384C 357.692,383.692 357.025,383.192 356.5,382.5C 357.391,381.41 358.391,381.41 359.5,382.5C 360.5,382.167 361.167,381.5 361.5,380.5C 361.154,379.304 360.654,379.304 360,380.5C 359.536,379.906 359.369,379.239 359.5,378.5C 361.912,378.314 364.245,377.48 366.5,376C 366.167,376.333 365.833,376.667 365.5,377C 367.878,377.974 367.544,378.641 364.5,379C 366.256,379.202 367.922,379.702 369.5,380.5C 366.833,381.5 366.833,382.5 369.5,383.5C 371.12,380.942 372.62,380.942 374,383.5C 374.333,382.833 374.667,382.167 375,381.5C 376.087,383.932 376.587,383.598 376.5,380.5C 378.582,380.472 380.416,381.139 382,382.5C 382.333,382.167 382.667,381.833 383,381.5C 384.762,383.463 386.429,384.796 388,385.5C 389.205,384.929 390.372,384.262 391.5,383.5C 391.167,382.833 390.833,382.167 390.5,381.5C 388.5,380.833 386.5,380.167 384.5,379.5C 386.711,378.021 389.044,376.688 391.5,375.5C 393.5,377.167 395.5,378.833 397.5,380.5C 397.682,382.591 397.348,384.591 396.5,386.5C 400.5,387.833 400.5,389.167 396.5,390.5C 399.167,391.833 401.833,393.167 404.5,394.5C 401.614,394.71 398.614,394.877 395.5,395C 394.833,395.667 394.167,396.333 393.5,397C 394.833,398 394.833,399 393.5,400C 395.553,401.08 397.72,401.914 400,402.5C 401.113,401.289 402.28,401.289 403.5,402.5C 404.287,401.758 404.953,400.925 405.5,400C 408.5,399.667 411.5,399.333 414.5,399C 413.304,398.346 413.304,397.846 414.5,397.5C 416.371,398.767 418.204,398.767 420,397.5C 421.017,400.028 422.184,400.028 423.5,397.5C 427.636,400.743 431.969,401.077 436.5,398.5C 432.807,396.995 430.974,394.328 431,390.5C 432.117,390.335 433.284,390.002 434.5,389.5C 435.249,391.012 436.416,392.012 438,392.5C 439.63,391.287 441.464,390.454 443.5,390C 442.167,389.667 440.833,389.333 439.5,389C 441.167,388.167 442.833,387.333 444.5,386.5C 448.061,386.899 448.395,388.732 445.5,392C 450.833,392.667 456.167,392.667 461.5,392C 458.879,391.094 459.046,390.594 462,390.5C 467.765,392.525 473.598,393.359 479.5,393C 478.833,393.333 478.167,393.667 477.5,394C 478.872,394.402 480.205,394.902 481.5,395.5C 481.911,394.738 482.077,393.738 482,392.5C 483.719,394.557 485.719,396.224 488,397.5C 493.771,396.405 493.605,395.239 487.5,394C 489.356,393.07 491.356,392.57 493.5,392.5C 494.386,391.675 494.719,390.675 494.5,389.5C 496.199,389.38 497.865,389.046 499.5,388.5C 502.913,390.79 506.413,390.79 510,388.5C 512.641,389.933 515.474,390.933 518.5,391.5C 518.205,390.174 518.705,388.841 520,387.5C 522.088,388.308 524.088,389.308 526,390.5C 527.779,388.983 527.279,388.149 524.5,388C 527.988,385.791 530.988,386.291 533.5,389.5C 536.73,388.192 540.064,387.192 543.5,386.5C 541.922,385.702 540.256,385.202 538.5,385C 542.756,384.136 546.756,383.802 550.5,384C 549.289,384.893 549.289,385.726 550.5,386.5C 551.77,385.438 552.937,384.438 554,383.5C 554.333,383.833 554.667,384.167 555,384.5C 554.387,380.905 555.554,380.571 558.5,383.5C 559.861,381.972 561.028,380.305 562,378.5C 562.725,377.941 563.558,377.608 564.5,377.5C 565.26,379.05 566.427,380.383 568,381.5C 568.407,376.451 569.074,371.451 570,366.5C 571.337,370.026 571.837,373.692 571.5,377.5C 572.5,377.5 573.5,377.5 574.5,377.5 Z"/></g>
<g><path style="opacity:1" fill="#693ee7" d="M 577.5,362.5 C 577.5,366.833 577.5,371.167 577.5,375.5C 575.821,375.285 574.821,375.952 574.5,377.5C 573.5,377.5 572.5,377.5 571.5,377.5C 571.837,373.692 571.337,370.026 570,366.5C 569.074,371.451 568.407,376.451 568,381.5C 566.427,380.383 565.26,379.05 564.5,377.5C 563.558,377.608 562.725,377.941 562,378.5C 561.028,380.305 559.861,381.972 558.5,383.5C 555.554,380.571 554.387,380.905 555,384.5C 554.667,384.167 554.333,383.833 554,383.5C 552.937,384.438 551.77,385.438 550.5,386.5C 549.289,385.726 549.289,384.893 550.5,384C 546.756,383.802 542.756,384.136 538.5,385C 540.256,385.202 541.922,385.702 543.5,386.5C 540.064,387.192 536.73,388.192 533.5,389.5C 530.988,386.291 527.988,385.791 524.5,388C 527.279,388.149 527.779,388.983 526,390.5C 524.088,389.308 522.088,388.308 520,387.5C 518.705,388.841 518.205,390.174 518.5,391.5C 515.474,390.933 512.641,389.933 510,388.5C 506.413,390.79 502.913,390.79 499.5,388.5C 497.865,389.046 496.199,389.38 494.5,389.5C 494.719,390.675 494.386,391.675 493.5,392.5C 491.356,392.57 489.356,393.07 487.5,394C 493.605,395.239 493.771,396.405 488,397.5C 485.719,396.224 483.719,394.557 482,392.5C 482.077,393.738 481.911,394.738 481.5,395.5C 480.205,394.902 478.872,394.402 477.5,394C 478.167,393.667 478.833,393.333 479.5,393C 473.598,393.359 467.765,392.525 462,390.5C 459.046,390.594 458.879,391.094 461.5,392C 456.167,392.667 450.833,392.667 445.5,392C 448.395,388.732 448.061,386.899 444.5,386.5C 442.833,387.333 441.167,388.167 439.5,389C 440.833,389.333 442.167,389.667 443.5,390C 441.464,390.454 439.63,391.287 438,392.5C 436.416,392.012 435.249,391.012 434.5,389.5C 433.284,390.002 432.117,390.335 431,390.5C 430.974,394.328 432.807,396.995 436.5,398.5C 431.969,401.077 427.636,400.743 423.5,397.5C 422.184,400.028 421.017,400.028 420,397.5C 418.204,398.767 416.371,398.767 414.5,397.5C 413.304,397.846 413.304,398.346 414.5,399C 411.5,399.333 408.5,399.667 405.5,400C 404.953,400.925 404.287,401.758 403.5,402.5C 402.28,401.289 401.113,401.289 400,402.5C 397.72,401.914 395.553,401.08 393.5,400C 394.833,399 394.833,398 393.5,397C 394.167,396.333 394.833,395.667 395.5,395C 398.614,394.877 401.614,394.71 404.5,394.5C 401.833,393.167 399.167,391.833 396.5,390.5C 400.5,389.167 400.5,387.833 396.5,386.5C 397.348,384.591 397.682,382.591 397.5,380.5C 400.688,383.008 404.354,384.342 408.5,384.5C 413.998,383.669 418.998,381.669 423.5,378.5C 428.492,380.831 433.492,382.498 438.5,383.5C 442.866,381.03 447.366,379.696 452,379.5C 454.155,380.579 456.155,381.913 458,383.5C 459.512,381.043 460.846,381.043 462,383.5C 463.063,382.562 464.23,381.562 465.5,380.5C 466.903,380.36 468.403,380.36 470,380.5C 470.333,379.833 470.667,379.167 471,378.5C 472.693,379.184 474.193,380.184 475.5,381.5C 476.086,381.291 476.586,380.957 477,380.5C 477.918,382.632 479.251,383.299 481,382.5C 480.737,383.951 480.904,385.284 481.5,386.5C 482.816,383.972 483.983,383.972 485,386.5C 487.594,386.239 490.26,386.239 493,386.5C 494.762,386.056 494.595,385.556 492.5,385C 492.728,384.601 493.062,384.435 493.5,384.5C 503.48,384.838 511.146,380.838 516.5,372.5C 517.801,373.64 518.968,374.973 520,376.5C 522.979,375.81 525.979,376.144 529,377.5C 531.255,376.785 533.588,375.451 536,373.5C 536.772,373.645 537.439,373.978 538,374.5C 540.411,371.895 542.911,371.895 545.5,374.5C 546.428,372.665 547.594,372.332 549,373.5C 549.324,371.431 550.158,371.098 551.5,372.5C 553.776,371.787 556.109,371.287 558.5,371C 558.957,370.586 559.291,370.086 559.5,369.5C 556.904,367.703 557.237,366.369 560.5,365.5C 562.005,368.131 562.671,367.797 562.5,364.5C 559.774,364.736 557.441,363.903 555.5,362C 559.332,360.375 563.332,359.375 567.5,359C 568.167,358.333 568.833,357.667 569.5,357C 568.289,356.107 568.289,355.274 569.5,354.5C 570.5,354.833 571.167,355.5 571.5,356.5C 570.107,359.602 570.94,360.602 574,359.5C 575.039,360.71 576.206,361.71 577.5,362.5 Z"/></g>
<g><path style="opacity:1" fill="#6425ec" d="M 1469.5,360.5 C 1462.96,379.282 1456.63,398.282 1450.5,417.5C 1465.66,418.496 1480.99,418.83 1496.5,418.5C 1480.99,419.827 1465.33,419.827 1449.5,418.5C 1448.83,416.833 1448.17,415.167 1447.5,413.5C 1448.25,413.264 1449.08,412.93 1450,412.5C 1451.44,408.85 1452.44,405.183 1453,401.5C 1450.57,403.138 1447.74,404.638 1444.5,406C 1445.65,407.744 1446.98,407.911 1448.5,406.5C 1449.45,408.045 1449.79,409.712 1449.5,411.5C 1443.78,411.48 1438.45,409.98 1433.5,407C 1431.62,404.874 1430.62,402.374 1430.5,399.5C 1433.9,387.286 1437.9,375.286 1442.5,363.5C 1443.97,362.653 1444.8,361.32 1445,359.5C 1445.33,360.5 1445.67,361.5 1446,362.5C 1447.9,360.559 1448.74,358.226 1448.5,355.5C 1451.76,356.307 1454.93,356.307 1458,355.5C 1459.32,356.974 1460.32,358.641 1461,360.5C 1461.33,360.167 1461.67,359.833 1462,359.5C 1463.31,361.658 1464.98,361.991 1467,360.5C 1468.73,354.052 1469.56,354.052 1469.5,360.5 Z"/></g>
<g><path style="opacity:1" fill="#6221ef" d="M 1743.5,477.5 C 1739.15,477.666 1734.82,477.499 1730.5,477C 1734.49,476.501 1738.49,476.334 1742.5,476.5C 1742.83,459.82 1742.5,443.153 1741.5,426.5C 1740.05,425.345 1739.05,423.845 1738.5,422C 1739.57,419.133 1740.57,416.299 1741.5,413.5C 1741.28,411.085 1739.95,410.085 1737.5,410.5C 1737.79,408.712 1737.45,407.045 1736.5,405.5C 1735.99,407.851 1734.99,409.851 1733.5,411.5C 1732.12,410.024 1730.45,409.024 1728.5,408.5C 1727.86,406.205 1726.53,404.539 1724.5,403.5C 1723.75,404.376 1723.25,405.376 1723,406.5C 1722.06,403.879 1721.23,401.212 1720.5,398.5C 1719.17,424.733 1719.17,450.899 1720.5,477C 1719.91,477.464 1719.24,477.631 1718.5,477.5C 1718.11,435.485 1718.61,393.485 1720,351.5C 1720.62,355.834 1721.45,360.001 1722.5,364C 1721.09,371.13 1721.76,371.13 1724.5,364C 1724.19,362.318 1723.86,360.652 1723.5,359C 1723.95,356.964 1724.79,355.13 1726,353.5C 1728.8,355.785 1730.97,358.452 1732.5,361.5C 1734.12,361.64 1735.29,360.973 1736,359.5C 1736.33,360.833 1736.67,362.167 1737,363.5C 1737.74,362.359 1738.57,362.359 1739.5,363.5C 1741.5,366.901 1742.66,370.568 1743,374.5C 1743.5,408.832 1743.67,443.165 1743.5,477.5 Z"/></g>
<g><path style="opacity:1" fill="#5e22ea" d="M 1571.5,319.5 C 1571.33,335.17 1571.5,350.837 1572,366.5C 1572.33,366.833 1572.67,367.167 1573,367.5C 1573.18,364.447 1573.68,361.447 1574.5,358.5C 1578.96,360.616 1583.63,362.116 1588.5,363C 1589.83,363.667 1589.83,364.333 1588.5,365C 1589.87,365.402 1591.21,365.902 1592.5,366.5C 1593.19,365.975 1593.69,365.308 1594,364.5C 1594.33,372.167 1594.67,379.833 1595,387.5C 1595.28,388.416 1595.78,389.082 1596.5,389.5C 1596.23,391.099 1596.57,392.432 1597.5,393.5C 1613.17,393.667 1628.84,393.5 1644.5,393C 1651.47,392.023 1655.97,388.19 1658,381.5C 1658.5,373.173 1658.67,364.84 1658.5,356.5C 1659.22,356.082 1659.72,355.416 1660,354.5C 1660.67,355.833 1661.33,357.167 1662,358.5C 1662.33,358.167 1662.67,357.833 1663,357.5C 1663.49,358.793 1663.66,360.127 1663.5,361.5C 1667.06,360.24 1670.06,361.24 1672.5,364.5C 1670.93,363.939 1669.6,364.606 1668.5,366.5C 1670.51,368.171 1672.84,368.838 1675.5,368.5C 1675.7,366.61 1675.04,365.11 1673.5,364C 1676.25,363.401 1678.25,361.901 1679.5,359.5C 1680.5,359.586 1681.33,359.252 1682,358.5C 1682.33,359.167 1682.67,359.833 1683,360.5C 1683.5,369.494 1683.67,378.494 1683.5,387.5C 1680.52,404.975 1670.19,414.808 1652.5,417C 1634.17,417.5 1615.84,417.667 1597.5,417.5C 1596.83,434.671 1596.17,452.005 1595.5,469.5C 1595.05,452.243 1594.55,434.91 1594,417.5C 1591.32,418.657 1588.32,419.991 1585,421.5C 1583.58,420.54 1582.08,419.707 1580.5,419C 1582.61,418.64 1584.61,417.973 1586.5,417C 1585.59,415.301 1585.26,413.467 1585.5,411.5C 1584.45,411.351 1583.45,411.517 1582.5,412C 1583.89,412.889 1583.72,413.389 1582,413.5C 1581.13,413.265 1580.29,412.931 1579.5,412.5C 1578.83,410.5 1578.17,408.5 1577.5,406.5C 1576.22,409.372 1576.22,412.205 1577.5,415C 1576.21,415.49 1574.87,415.657 1573.5,415.5C 1572.49,433.138 1572.16,453.472 1572.5,476.5C 1576.18,476.335 1579.85,476.501 1583.5,477C 1579.51,477.499 1575.51,477.666 1571.5,477.5C 1570.17,424.833 1570.17,372.167 1571.5,319.5 Z"/></g>
<g><path style="opacity:1" fill="#5e2ce7" d="M 393.5,427.5 C 391.265,426.771 389.431,425.438 388,423.5C 386.101,423.618 384.267,423.118 382.5,422C 383.696,421.346 383.696,420.846 382.5,420.5C 381.833,420.833 381.167,421.167 380.5,421.5C 376.198,419.565 371.865,418.731 367.5,419C 367.833,418.667 368.167,418.333 368.5,418C 363.5,417.333 358.5,417.333 353.5,418C 353.833,418.333 354.167,418.667 354.5,419C 353.049,418.737 351.716,418.904 350.5,419.5C 351.025,420.192 351.692,420.692 352.5,421C 350.674,421.292 348.841,421.125 347,420.5C 345.105,420.615 343.438,421.282 342,422.5C 340.936,420.731 339.769,419.064 338.5,417.5C 338.919,416.328 339.585,415.328 340.5,414.5C 339.559,414.511 338.892,414.011 338.5,413C 339.627,411.943 340.127,410.777 340,409.5C 339.667,409.833 339.333,410.167 339,410.5C 338.751,409.376 338.251,408.376 337.5,407.5C 336.831,409.631 336.165,411.631 335.5,413.5C 336.128,405.085 336.128,396.752 335.5,388.5C 336.857,387.315 338.357,386.315 340,385.5C 341.581,387.847 342.914,387.847 344,385.5C 344.465,386.931 345.299,388.097 346.5,389C 344.922,390.14 343.256,390.64 341.5,390.5C 342.242,391.287 343.075,391.953 344,392.5C 345.333,391.167 346.667,391.167 348,392.5C 347.923,391.262 348.089,390.262 348.5,389.5C 349.23,390.934 350.23,392.1 351.5,393C 347.459,393.173 343.459,393.673 339.5,394.5C 342.295,395.248 342.962,396.748 341.5,399C 342.707,400.3 343.374,401.8 343.5,403.5C 347.887,404.722 352.387,404.722 357,403.5C 359.999,403.994 362.999,405.328 366,407.5C 366.691,405.109 367.691,405.109 369,407.5C 371.173,404.723 371.673,404.89 370.5,408C 373.506,408.332 376.34,409.166 379,410.5C 380.388,409.446 381.888,409.28 383.5,410C 384.629,412.168 386.129,412.668 388,411.5C 388.617,412.449 388.451,413.282 387.5,414C 390.953,417.575 394.619,420.909 398.5,424C 397.167,424.333 395.833,424.667 394.5,425C 395.566,426.159 395.233,426.992 393.5,427.5 Z"/></g>
<g><path style="opacity:1" fill="#321980" d="M 1518.5,401.5 C 1520.07,404.215 1521.07,407.215 1521.5,410.5C 1519.53,407.916 1518.53,404.916 1518.5,401.5 Z"/></g>
<g><path style="opacity:1" fill="#b44ff7" d="M 330.5,348.5 C 330.5,349.167 330.5,349.833 330.5,350.5C 330.5,355.833 330.5,361.167 330.5,366.5C 330.5,383.833 330.5,401.167 330.5,418.5C 329.668,448.331 329.168,478.331 329,508.5C 328.654,506.782 328.154,505.115 327.5,503.5C 329.1,483.473 328.6,463.473 326,443.5C 325.667,444.5 325.333,445.5 325,446.5C 324.667,436.5 324.333,426.5 324,416.5C 323.829,423.679 323.329,430.679 322.5,437.5C 322.5,412.833 322.5,388.167 322.5,363.5C 323.302,362.048 323.802,360.382 324,358.5C 324.446,365.189 325.113,371.856 326,378.5C 326.333,377.167 326.667,375.833 327,374.5C 328.232,379.721 328.899,385.054 329,390.5C 329.169,376.327 329.669,362.327 330.5,348.5 Z"/></g>
<g><path style="opacity:1" fill="#541ce1" d="M 1430.5,399.5 C 1430.62,402.374 1431.62,404.874 1433.5,407C 1438.45,409.98 1443.78,411.48 1449.5,411.5C 1449.79,409.712 1449.45,408.045 1448.5,406.5C 1446.98,407.911 1445.65,407.744 1444.5,406C 1447.74,404.638 1450.57,403.138 1453,401.5C 1452.44,405.183 1451.44,408.85 1450,412.5C 1449.08,412.93 1448.25,413.264 1447.5,413.5C 1448.17,415.167 1448.83,416.833 1449.5,418.5C 1465.33,419.827 1480.99,419.827 1496.5,418.5C 1496.5,417.5 1496.5,416.5 1496.5,415.5C 1496.35,414.448 1496.52,413.448 1497,412.5C 1498,412.833 1499,413.167 1500,413.5C 1499.56,415.759 1499.06,418.092 1498.5,420.5C 1505.91,418.722 1513.08,416.055 1520,412.5C 1519.85,417.87 1522.02,421.87 1526.5,424.5C 1529.23,431.695 1531.56,439.029 1533.5,446.5C 1533.35,449.716 1534.35,452.383 1536.5,454.5C 1538.44,458.982 1539.77,463.649 1540.5,468.5C 1540.96,471.482 1541.3,474.482 1541.5,477.5C 1533.34,478.657 1525.01,478.823 1516.5,478C 1511.93,466.456 1508.26,454.622 1505.5,442.5C 1484.17,442.5 1462.83,442.5 1441.5,442.5C 1441.37,444.216 1441.04,445.883 1440.5,447.5C 1439.08,449.515 1438.41,451.848 1438.5,454.5C 1435.47,461.93 1432.8,469.596 1430.5,477.5C 1422.19,478.665 1413.85,478.832 1405.5,478C 1404.92,477.107 1404.59,476.107 1404.5,475C 1412.03,449.326 1420.7,424.159 1430.5,399.5 Z"/></g>
<g><path style="opacity:1" fill="#5d2ee4" d="M 359.5,378.5 C 359.369,379.239 359.536,379.906 360,380.5C 360.654,379.304 361.154,379.304 361.5,380.5C 361.167,381.5 360.5,382.167 359.5,382.5C 358.391,381.41 357.391,381.41 356.5,382.5C 357.025,383.192 357.692,383.692 358.5,384C 357.778,386.741 356.112,387.741 353.5,387C 353.833,386.667 354.167,386.333 354.5,386C 353.01,384.366 351.676,384.699 350.5,387C 351.442,390.248 352.775,390.748 354.5,388.5C 356.683,390.571 359.016,392.071 361.5,393C 363.112,393.72 364.612,393.554 366,392.5C 368.93,394.159 371.93,394.492 375,393.5C 376.182,395.235 377.849,396.235 380,396.5C 381.649,395.102 382.982,395.436 384,397.5C 384,396.167 384,394.833 384,393.5C 385.635,394.726 387.135,396.059 388.5,397.5C 387.975,398.192 387.308,398.692 386.5,399C 387.406,401.447 388.239,403.947 389,406.5C 389.92,406.93 390.753,407.264 391.5,407.5C 391.291,408.086 390.957,408.586 390.5,409C 399.816,412.561 408.982,412.061 418,407.5C 422.304,407.438 426.638,408.105 431,409.5C 431.374,408.584 431.874,407.75 432.5,407C 431.376,406.751 430.376,406.251 429.5,405.5C 432.726,401.642 435.893,401.642 439,405.5C 439.333,402.167 439.667,398.833 440,395.5C 441.441,394.74 442.941,394.074 444.5,393.5C 445.107,393.624 445.44,393.957 445.5,394.5C 442.026,396.443 440.36,399.443 440.5,403.5C 440.497,416.009 446.497,420.842 458.5,418C 460.996,416.669 462.996,414.836 464.5,412.5C 467.066,412.344 469.566,412.678 472,413.5C 473.946,413.237 474.612,412.237 474,410.5C 472.186,411.76 470.353,411.76 468.5,410.5C 470.637,409.92 472.47,408.92 474,407.5C 475.356,408.38 476.856,408.714 478.5,408.5C 478.421,407.07 478.754,405.736 479.5,404.5C 481.193,403.772 482.693,402.772 484,401.5C 484.5,403.333 485.667,404.5 487.5,405C 484.972,406.017 484.972,407.184 487.5,408.5C 486.198,410.201 484.531,411.368 482.5,412C 483.696,412.654 483.696,413.154 482.5,413.5C 480.147,412.435 477.814,412.602 475.5,414C 479.628,416.598 484.128,417.765 489,417.5C 495.978,416.042 503.644,415.042 512,414.5C 514.026,415.019 516.026,415.353 518,415.5C 519.255,414.789 520.421,413.956 521.5,413C 517.904,412.474 514.238,412.474 510.5,413C 511.167,412.667 511.833,412.333 512.5,412C 509.833,410 509.833,408 512.5,406C 511.833,405.833 511.167,405.667 510.5,405.5C 509.214,405.852 508.381,406.518 508,407.5C 506.068,405.822 503.902,405.322 501.5,406C 502.833,406.333 504.167,406.667 505.5,407C 501.681,407.069 498.014,407.236 494.5,407.5C 494.5,408.5 494.5,409.5 494.5,410.5C 495.552,410.351 496.552,410.517 497.5,411C 495.273,412.835 493.44,412.335 492,409.5C 490.927,410.28 489.76,410.113 488.5,409C 489.52,407.444 490.853,406.278 492.5,405.5C 499.68,403.384 506.68,402.718 513.5,403.5C 514.5,402.833 515.5,402.167 516.5,401.5C 518.322,401.463 520.322,401.796 522.5,402.5C 522.45,400.41 523.45,399.077 525.5,398.5C 526.386,399.325 526.719,400.325 526.5,401.5C 532.736,401.481 538.57,400.147 544,397.5C 546.056,398.202 547.889,397.535 549.5,395.5C 552.348,397.15 554.848,396.816 557,394.5C 557.689,395.357 558.522,396.023 559.5,396.5C 559.669,395.603 560.002,394.603 560.5,393.5C 561.167,394.5 561.833,395.5 562.5,396.5C 562.669,395.603 563.002,394.603 563.5,393.5C 564.623,395.289 565.956,395.622 567.5,394.5C 568.629,392.725 569.629,391.058 570.5,389.5C 571.167,390.833 571.833,392.167 572.5,393.5C 574.69,392.252 575.023,390.586 573.5,388.5C 576.147,385.88 576.147,383.214 573.5,380.5C 573.818,379.353 574.484,378.519 575.5,378C 575.272,377.601 574.938,377.435 574.5,377.5C 574.821,375.952 575.821,375.285 577.5,375.5C 577.5,385.833 577.5,396.167 577.5,406.5C 577.167,406.5 576.833,406.5 576.5,406.5C 576.648,390.609 575.814,390.609 574,406.5C 573.667,406.167 573.333,405.833 573,405.5C 571.983,408.028 570.816,408.028 569.5,405.5C 569.264,406.247 568.93,407.08 568.5,408C 563.9,408.465 559.4,409.299 555,410.5C 552.001,410.519 549.168,409.852 546.5,408.5C 545.396,409.631 545.729,410.465 547.5,411C 542.375,412.262 542.541,413.428 548,414.5C 548.833,414.333 549.667,414.167 550.5,414C 551.833,413.333 551.833,412.667 550.5,412C 553.482,411.502 556.482,411.335 559.5,411.5C 559.5,412.5 559.5,413.5 559.5,414.5C 560.5,414.5 561.5,414.5 562.5,414.5C 562.5,415.5 562.5,416.5 562.5,417.5C 560.058,417.354 559.391,418.187 560.5,420C 559.674,424.151 557.841,424.651 555,421.5C 550.221,422.325 545.555,423.658 541,425.5C 537.896,425.149 538.063,424.649 541.5,424C 537.756,423.071 534.256,423.571 531,425.5C 530.25,424.874 529.416,424.374 528.5,424C 525.667,423.833 522.833,423.667 520,423.5C 509.896,424.951 499.73,426.284 489.5,427.5C 487.44,427.428 485.44,427.095 483.5,426.5C 483.167,427.167 482.833,427.833 482.5,428.5C 480.127,428.862 477.793,428.195 475.5,426.5C 474.833,426.833 474.167,427.167 473.5,427.5C 472.167,426.5 470.833,425.5 469.5,424.5C 466.831,425.181 464.165,424.848 461.5,423.5C 459.644,424.276 458.311,425.609 457.5,427.5C 456.833,426.833 456.167,426.167 455.5,425.5C 451.211,428.893 446.878,429.059 442.5,426C 437.798,425.172 433.131,425.338 428.5,426.5C 421.906,429.517 415.073,431.85 408,433.5C 407.586,433.043 407.086,432.709 406.5,432.5C 406.704,433.529 406.204,434.529 405,435.5C 402.467,434.128 399.8,433.128 397,432.5C 396.667,432.833 396.333,433.167 396,433.5C 395.392,431.934 394.558,430.6 393.5,429.5C 392.494,429.062 392.494,428.396 393.5,427.5C 395.233,426.992 395.566,426.159 394.5,425C 395.833,424.667 397.167,424.333 398.5,424C 394.619,420.909 390.953,417.575 387.5,414C 388.451,413.282 388.617,412.449 388,411.5C 386.129,412.668 384.629,412.168 383.5,410C 381.888,409.28 380.388,409.446 379,410.5C 376.34,409.166 373.506,408.332 370.5,408C 371.673,404.89 371.173,404.723 369,407.5C 367.691,405.109 366.691,405.109 366,407.5C 362.999,405.328 359.999,403.994 357,403.5C 352.387,404.722 347.887,404.722 343.5,403.5C 343.374,401.8 342.707,400.3 341.5,399C 342.962,396.748 342.295,395.248 339.5,394.5C 343.459,393.673 347.459,393.173 351.5,393C 350.23,392.1 349.23,390.934 348.5,389.5C 348.089,390.262 347.923,391.262 348,392.5C 346.667,391.167 345.333,391.167 344,392.5C 343.075,391.953 342.242,391.287 341.5,390.5C 343.256,390.64 344.922,390.14 346.5,389C 345.299,388.097 344.465,386.931 344,385.5C 342.914,387.847 341.581,387.847 340,385.5C 338.357,386.315 336.857,387.315 335.5,388.5C 334.841,386.862 334.174,385.195 333.5,383.5C 334.167,383.167 334.833,382.833 335.5,382.5C 334.834,381.169 334.834,379.669 335.5,378C 335.333,377.167 335.167,376.333 335,375.5C 334.64,377.608 333.973,379.608 333,381.5C 332.501,377.848 332.335,374.182 332.5,370.5C 333.868,368.436 334.868,366.102 335.5,363.5C 336.748,366.506 336.748,369.506 335.5,372.5C 336.242,373.287 337.075,373.953 338,374.5C 339.333,371.833 340.667,371.833 342,374.5C 342.667,371.833 343.333,371.833 344,374.5C 344.249,373.376 344.749,372.376 345.5,371.5C 346.709,373.415 348.042,375.248 349.5,377C 346.951,382.765 347.617,382.932 351.5,377.5C 351.911,378.262 352.077,379.262 352,380.5C 354.61,380.822 357.11,380.156 359.5,378.5 Z"/></g>
<g><path style="opacity:1" fill="#f5f2f9" d="M 445.5,394.5 C 461.826,390.497 468.159,396.497 464.5,412.5C 462.996,414.836 460.996,416.669 458.5,418C 446.497,420.842 440.497,416.009 440.5,403.5C 440.36,399.443 442.026,396.443 445.5,394.5 Z"/></g>
<g><path style="opacity:1" fill="#383838" d="M 741.5,415.5 C 751.833,415.5 762.167,415.5 772.5,415.5C 772.827,424.682 772.493,433.682 771.5,442.5C 771.5,433.833 771.5,425.167 771.5,416.5C 761.319,416.827 751.319,416.494 741.5,415.5 Z"/></g>
<g><path style="opacity:1" fill="#281065" d="M 1495.5,415.5 C 1495.83,415.5 1496.17,415.5 1496.5,415.5C 1496.5,416.5 1496.5,417.5 1496.5,418.5C 1480.99,418.83 1465.66,418.496 1450.5,417.5C 1465.87,418.15 1480.87,417.484 1495.5,415.5 Z"/></g>
<g><path style="opacity:1" fill="#5725e1" d="M 576.5,406.5 C 576.5,407.833 576.5,409.167 576.5,410.5C 575.736,412.74 574.902,415.073 574,417.5C 572.887,418.711 571.72,418.711 570.5,417.5C 569.77,418.934 568.77,420.1 567.5,421C 568.833,422.667 568.833,424.333 567.5,426C 568.025,426.692 568.692,427.192 569.5,427.5C 570.081,424.625 571.081,421.958 572.5,419.5C 573.078,422.369 574.078,425.035 575.5,427.5C 574.833,430.833 574.167,434.167 573.5,437.5C 573.167,437.833 572.833,438.167 572.5,438.5C 571.833,437.5 571.167,436.5 570.5,435.5C 569.369,436.751 568.036,437.751 566.5,438.5C 565.214,438.148 564.381,437.482 564,436.5C 562.7,437.707 561.2,438.374 559.5,438.5C 559.966,440.201 559.966,441.701 559.5,443C 556.776,443.27 554.109,443.77 551.5,444.5C 551.306,442.93 551.306,441.43 551.5,440C 549.865,439.46 548.532,439.96 547.5,441.5C 546.148,439.364 544.482,439.03 542.5,440.5C 542.167,439.833 541.833,439.167 541.5,438.5C 540.707,438.931 539.873,439.265 539,439.5C 536.655,437.884 534.155,436.551 531.5,435.5C 530.289,436.274 530.289,437.107 531.5,438C 526.677,438.081 522.01,438.915 517.5,440.5C 514.838,439.503 512.172,438.503 509.5,437.5C 507.477,438.54 505.477,439.54 503.5,440.5C 499.877,438.084 496.21,438.084 492.5,440.5C 491.045,439.61 489.711,439.61 488.5,440.5C 488.167,439.833 487.833,439.167 487.5,438.5C 486.808,439.025 486.308,439.692 486,440.5C 483.974,439.981 481.974,439.647 480,439.5C 479.692,440.308 479.192,440.975 478.5,441.5C 476.119,439.608 473.453,439.108 470.5,440C 472.595,440.556 472.762,441.056 471,441.5C 465.551,441.222 460.051,441.055 454.5,441C 453.407,439.635 452.074,439.301 450.5,440C 451.167,440.333 451.833,440.667 452.5,441C 448.11,441.772 443.777,441.606 439.5,440.5C 440.016,441.758 439.35,442.758 437.5,443.5C 436.304,443.154 436.304,442.654 437.5,442C 434.315,441.265 431.315,441.765 428.5,443.5C 419.603,442.374 410.77,442.374 402,443.5C 399.109,443.74 396.609,442.907 394.5,441C 394.833,440.667 395.167,440.333 395.5,440C 394.128,439.598 392.795,439.098 391.5,438.5C 390.468,440.04 389.135,440.54 387.5,440C 387.167,439 386.833,438 386.5,437C 385.451,436.508 384.451,436.674 383.5,437.5C 382.304,437.154 382.304,436.654 383.5,436C 382.167,435.333 380.833,434.667 379.5,434C 383.308,434.665 387.141,435.499 391,436.5C 392.993,434.594 392.493,433.427 389.5,433C 391.55,432.584 392.884,431.417 393.5,429.5C 394.558,430.6 395.392,431.934 396,433.5C 396.333,433.167 396.667,432.833 397,432.5C 399.8,433.128 402.467,434.128 405,435.5C 406.204,434.529 406.704,433.529 406.5,432.5C 407.086,432.709 407.586,433.043 408,433.5C 415.073,431.85 421.906,429.517 428.5,426.5C 433.131,425.338 437.798,425.172 442.5,426C 446.878,429.059 451.211,428.893 455.5,425.5C 456.167,426.167 456.833,426.833 457.5,427.5C 458.311,425.609 459.644,424.276 461.5,423.5C 464.165,424.848 466.831,425.181 469.5,424.5C 470.833,425.5 472.167,426.5 473.5,427.5C 474.167,427.167 474.833,426.833 475.5,426.5C 477.793,428.195 480.127,428.862 482.5,428.5C 482.833,427.833 483.167,427.167 483.5,426.5C 485.44,427.095 487.44,427.428 489.5,427.5C 499.73,426.284 509.896,424.951 520,423.5C 522.833,423.667 525.667,423.833 528.5,424C 529.416,424.374 530.25,424.874 531,425.5C 534.256,423.571 537.756,423.071 541.5,424C 538.063,424.649 537.896,425.149 541,425.5C 545.555,423.658 550.221,422.325 555,421.5C 557.841,424.651 559.674,424.151 560.5,420C 559.391,418.187 560.058,417.354 562.5,417.5C 562.5,416.5 562.5,415.5 562.5,414.5C 561.5,414.5 560.5,414.5 559.5,414.5C 559.5,413.5 559.5,412.5 559.5,411.5C 556.482,411.335 553.482,411.502 550.5,412C 551.833,412.667 551.833,413.333 550.5,414C 549.667,414.167 548.833,414.333 548,414.5C 542.541,413.428 542.375,412.262 547.5,411C 545.729,410.465 545.396,409.631 546.5,408.5C 549.168,409.852 552.001,410.519 555,410.5C 559.4,409.299 563.9,408.465 568.5,408C 568.93,407.08 569.264,406.247 569.5,405.5C 570.816,408.028 571.983,408.028 573,405.5C 573.333,405.833 573.667,406.167 574,406.5C 575.814,390.609 576.648,390.609 576.5,406.5 Z"/></g>
<g><path style="opacity:1" fill="#1d1d1e" d="M 1277.5,342.5 C 1291.83,342.5 1306.17,342.5 1320.5,342.5C 1320.5,386.833 1320.5,431.167 1320.5,475.5C 1319.5,431.67 1319.17,387.67 1319.5,343.5C 1305.32,343.829 1291.32,343.496 1277.5,342.5 Z"/></g>
<g><path style="opacity:1" fill="#511ee1" d="M 393.5,427.5 C 392.494,428.396 392.494,429.062 393.5,429.5C 392.884,431.417 391.55,432.584 389.5,433C 392.493,433.427 392.993,434.594 391,436.5C 387.141,435.499 383.308,434.665 379.5,434C 380.833,434.667 382.167,435.333 383.5,436C 382.304,436.654 382.304,437.154 383.5,437.5C 384.451,436.674 385.451,436.508 386.5,437C 386.833,438 387.167,439 387.5,440C 389.135,440.54 390.468,440.04 391.5,438.5C 392.795,439.098 394.128,439.598 395.5,440C 395.167,440.333 394.833,440.667 394.5,441C 396.609,442.907 399.109,443.74 402,443.5C 410.77,442.374 419.603,442.374 428.5,443.5C 431.315,441.765 434.315,441.265 437.5,442C 436.304,442.654 436.304,443.154 437.5,443.5C 439.35,442.758 440.016,441.758 439.5,440.5C 443.777,441.606 448.11,441.772 452.5,441C 451.833,440.667 451.167,440.333 450.5,440C 452.074,439.301 453.407,439.635 454.5,441C 460.051,441.055 465.551,441.222 471,441.5C 472.762,441.056 472.595,440.556 470.5,440C 473.453,439.108 476.119,439.608 478.5,441.5C 479.192,440.975 479.692,440.308 480,439.5C 481.974,439.647 483.974,439.981 486,440.5C 486.308,439.692 486.808,439.025 487.5,438.5C 487.833,439.167 488.167,439.833 488.5,440.5C 489.711,439.61 491.045,439.61 492.5,440.5C 496.21,438.084 499.877,438.084 503.5,440.5C 505.477,439.54 507.477,438.54 509.5,437.5C 512.172,438.503 514.838,439.503 517.5,440.5C 522.01,438.915 526.677,438.081 531.5,438C 530.289,437.107 530.289,436.274 531.5,435.5C 534.155,436.551 536.655,437.884 539,439.5C 539.873,439.265 540.707,438.931 541.5,438.5C 541.833,439.167 542.167,439.833 542.5,440.5C 544.482,439.03 546.148,439.364 547.5,441.5C 548.532,439.96 549.865,439.46 551.5,440C 551.306,441.43 551.306,442.93 551.5,444.5C 554.109,443.77 556.776,443.27 559.5,443C 559.966,441.701 559.966,440.201 559.5,438.5C 561.2,438.374 562.7,437.707 564,436.5C 564.381,437.482 565.214,438.148 566.5,438.5C 568.036,437.751 569.369,436.751 570.5,435.5C 571.167,436.5 571.833,437.5 572.5,438.5C 572.833,438.167 573.167,437.833 573.5,437.5C 574.167,434.167 574.833,430.833 575.5,427.5C 574.078,425.035 573.078,422.369 572.5,419.5C 571.081,421.958 570.081,424.625 569.5,427.5C 568.692,427.192 568.025,426.692 567.5,426C 568.833,424.333 568.833,422.667 567.5,421C 568.77,420.1 569.77,418.934 570.5,417.5C 571.72,418.711 572.887,418.711 574,417.5C 574.902,415.073 575.736,412.74 576.5,410.5C 576.667,446.168 576.5,481.835 576,517.5C 575.9,507.727 574.9,498.06 573,488.5C 572.667,488.167 572.333,487.833 572,487.5C 571.824,490.882 571.324,494.215 570.5,497.5C 569.833,497.833 569.167,498.167 568.5,498.5C 567.304,498.154 567.304,497.654 568.5,497C 567.552,496.517 566.552,496.351 565.5,496.5C 565.64,498.124 564.973,499.29 563.5,500C 560.753,500.112 558.253,499.946 556,499.5C 555.388,502.032 553.888,502.865 551.5,502C 553.874,499.961 555.874,497.628 557.5,495C 559.332,494.252 560.999,493.252 562.5,492C 561.833,491.667 561.167,491.333 560.5,491C 563.022,489.314 562.689,487.981 559.5,487C 563.682,484.88 563.348,483.547 558.5,483C 558.957,482.586 559.291,482.086 559.5,481.5C 557.922,480.702 556.256,480.202 554.5,480C 554.833,479.667 555.167,479.333 555.5,479C 554.101,478.405 552.768,478.572 551.5,479.5C 551.271,477.052 551.271,474.552 551.5,472C 548.403,470.934 545.736,469.267 543.5,467C 547.98,466.707 548.313,465.874 544.5,464.5C 543.785,462.213 543.451,460.046 543.5,458C 539.433,459.275 534.433,459.942 528.5,460C 529.308,460.308 529.975,460.808 530.5,461.5C 528.922,462.298 527.256,462.798 525.5,463C 527.878,463.974 527.544,464.641 524.5,465C 520.5,465.667 516.5,465.667 512.5,465C 507.383,463.728 506.883,462.228 511,460.5C 511.749,459.365 511.583,458.365 510.5,457.5C 507.165,460.071 503.832,460.071 500.5,457.5C 500.167,457.667 499.833,457.833 499.5,458C 500.357,458.689 501.023,459.522 501.5,460.5C 499.235,461.647 496.902,461.814 494.5,461C 495.227,459.601 495.727,458.101 496,456.5C 496.967,457.678 497.467,459.011 497.5,460.5C 497.833,459.167 498.167,457.833 498.5,456.5C 497.86,453.294 496.86,450.628 495.5,448.5C 494.713,449.242 494.047,450.075 493.5,451C 494.517,452.049 494.684,453.216 494,454.5C 491.163,451.942 488.663,452.109 486.5,455C 487.619,457.884 486.952,458.551 484.5,457C 485.647,455.719 485.313,455.386 483.5,456C 482.932,458.684 481.932,461.184 480.5,463.5C 476.845,461.943 473.512,462.443 470.5,465C 466.967,465.903 463.633,465.57 460.5,464C 463.859,465.211 466.526,464.211 468.5,461C 468.167,460.833 467.833,460.667 467.5,460.5C 463.843,462.041 460.01,463.041 456,463.5C 455.692,462.692 455.192,462.025 454.5,461.5C 453.289,462.274 453.289,463.107 454.5,464C 448.891,465.384 443.225,465.717 437.5,465C 438.784,463.703 438.617,462.536 437,461.5C 436.751,462.624 436.251,463.624 435.5,464.5C 434.281,463.354 432.948,462.354 431.5,461.5C 431.709,460.914 432.043,460.414 432.5,460C 429.968,459.381 427.635,458.381 425.5,457C 422.167,456.333 418.833,456.333 415.5,457C 414.831,460.005 414.831,462.672 415.5,465C 410.833,465.333 406.167,465.667 401.5,466C 402.833,466.667 402.833,467.333 401.5,468C 404.882,468.176 408.215,468.676 411.5,469.5C 410.726,470.711 409.893,470.711 409,469.5C 407.23,471.418 405.063,471.918 402.5,471C 404.167,470.667 405.833,470.333 407.5,470C 405.167,469.333 402.833,469.333 400.5,470C 401.458,471.147 401.125,472.147 399.5,473C 397.567,473.251 395.734,473.751 394,474.5C 394.738,472.586 395.572,470.586 396.5,468.5C 395.032,466.468 393.365,466.635 391.5,469C 391.957,469.414 392.291,469.914 392.5,470.5C 390.926,471.984 389.593,473.651 388.5,475.5C 388.377,473.378 388.377,471.211 388.5,469C 387.092,468.685 385.759,469.018 384.5,470C 385.167,470.333 385.833,470.667 386.5,471C 385.15,472.718 383.983,474.552 383,476.5C 382.097,475.299 380.931,474.465 379.5,474C 380.623,472.956 381.956,472.29 383.5,472C 382.167,471.333 382.167,470.667 383.5,470C 380.894,469.55 379.561,468.05 379.5,465.5C 377.567,465.729 375.9,466.562 374.5,468C 375.902,469.342 375.569,470.176 373.5,470.5C 372.833,470.333 372.167,470.167 371.5,470C 372.696,469.346 372.696,468.846 371.5,468.5C 368.801,470.848 365.801,472.682 362.5,474C 364.167,474.333 365.833,474.667 367.5,475C 365.922,476.14 364.256,476.64 362.5,476.5C 363.61,478.496 363.276,480.329 361.5,482C 363.113,482.089 364.28,481.255 365,479.5C 367.202,480.402 369.368,481.402 371.5,482.5C 369.922,483.298 368.256,483.798 366.5,484C 366.833,484.333 367.167,484.667 367.5,485C 365.153,485.436 362.819,485.936 360.5,486.5C 359.5,485.833 358.5,485.167 357.5,484.5C 355.058,485.036 352.725,485.869 350.5,487C 348.941,489.642 349.275,491.975 351.5,494C 349.833,495.333 348.167,496.667 346.5,498C 348.167,498.333 349.833,498.667 351.5,499C 350.892,499.87 350.059,500.37 349,500.5C 347.463,499.965 345.963,499.632 344.5,499.5C 343.5,500.833 342.5,502.167 341.5,503.5C 345.355,506.259 349.355,508.759 353.5,511C 355.941,509.38 358.608,508.547 361.5,508.5C 362.386,509.325 362.719,510.325 362.5,511.5C 359.916,515.933 357.082,520.266 354,524.5C 351.872,526.808 349.372,528.474 346.5,529.5C 344.167,529.5 341.833,529.5 339.5,529.5C 337.337,525.405 335.67,521.071 334.5,516.5C 334.765,500.648 335.432,484.815 336.5,469C 336.53,466.376 336.197,463.709 335.5,461C 336.393,454.911 337.06,448.744 337.5,442.5C 337.13,437.967 336.963,433.3 337,428.5C 336.107,429.711 335.274,429.711 334.5,428.5C 335.137,424.3 335.804,420.134 336.5,416C 335.748,415.329 335.414,414.496 335.5,413.5C 336.165,411.631 336.831,409.631 337.5,407.5C 338.251,408.376 338.751,409.376 339,410.5C 339.333,410.167 339.667,409.833 340,409.5C 340.127,410.777 339.627,411.943 338.5,413C 338.892,414.011 339.559,414.511 340.5,414.5C 339.585,415.328 338.919,416.328 338.5,417.5C 339.769,419.064 340.936,420.731 342,422.5C 343.438,421.282 345.105,420.615 347,420.5C 348.841,421.125 350.674,421.292 352.5,421C 351.692,420.692 351.025,420.192 350.5,419.5C 351.716,418.904 353.049,418.737 354.5,419C 354.167,418.667 353.833,418.333 353.5,418C 358.5,417.333 363.5,417.333 368.5,418C 368.167,418.333 367.833,418.667 367.5,419C 371.865,418.731 376.198,419.565 380.5,421.5C 381.167,421.167 381.833,420.833 382.5,420.5C 383.696,420.846 383.696,421.346 382.5,422C 384.267,423.118 386.101,423.618 388,423.5C 389.431,425.438 391.265,426.771 393.5,427.5 Z"/></g>
<g><path style="opacity:1" fill="#541ce2" d="M 1743.5,477.5 C 1735.17,478.833 1726.83,478.833 1718.5,477.5C 1719.24,477.631 1719.91,477.464 1720.5,477C 1719.17,450.899 1719.17,424.733 1720.5,398.5C 1721.23,401.212 1722.06,403.879 1723,406.5C 1723.25,405.376 1723.75,404.376 1724.5,403.5C 1726.53,404.539 1727.86,406.205 1728.5,408.5C 1730.45,409.024 1732.12,410.024 1733.5,411.5C 1734.99,409.851 1735.99,407.851 1736.5,405.5C 1737.45,407.045 1737.79,408.712 1737.5,410.5C 1739.95,410.085 1741.28,411.085 1741.5,413.5C 1740.57,416.299 1739.57,419.133 1738.5,422C 1739.05,423.845 1740.05,425.345 1741.5,426.5C 1742.5,443.153 1742.83,459.82 1742.5,476.5C 1738.49,476.334 1734.49,476.501 1730.5,477C 1734.82,477.499 1739.15,477.666 1743.5,477.5 Z"/></g>
<g><path style="opacity:1" fill="#511add" d="M 1597.5,417.5 C 1597.67,437.169 1597.5,456.836 1597,476.5C 1596.5,477 1596,477.5 1595.5,478C 1587.32,478.823 1579.32,478.656 1571.5,477.5C 1575.51,477.666 1579.51,477.499 1583.5,477C 1579.85,476.501 1576.18,476.335 1572.5,476.5C 1572.16,453.472 1572.49,433.138 1573.5,415.5C 1574.87,415.657 1576.21,415.49 1577.5,415C 1576.22,412.205 1576.22,409.372 1577.5,406.5C 1578.17,408.5 1578.83,410.5 1579.5,412.5C 1580.29,412.931 1581.13,413.265 1582,413.5C 1583.72,413.389 1583.89,412.889 1582.5,412C 1583.45,411.517 1584.45,411.351 1585.5,411.5C 1585.26,413.467 1585.59,415.301 1586.5,417C 1584.61,417.973 1582.61,418.64 1580.5,419C 1582.08,419.707 1583.58,420.54 1585,421.5C 1588.32,419.991 1591.32,418.657 1594,417.5C 1594.55,434.91 1595.05,452.243 1595.5,469.5C 1596.17,452.005 1596.83,434.671 1597.5,417.5 Z"/></g>
<g><path style="opacity:1" fill="#391694" d="M 1533.5,446.5 C 1534.87,448.936 1535.87,451.603 1536.5,454.5C 1534.35,452.383 1533.35,449.716 1533.5,446.5 Z"/></g>
<g><path style="opacity:1" fill="#190c48" d="M 1440.5,447.5 C 1440.59,450.152 1439.92,452.485 1438.5,454.5C 1438.41,451.848 1439.08,449.515 1440.5,447.5 Z"/></g>
<g><path style="opacity:1" fill="#6f27f2" d="M 332.5,370.5 C 332.335,374.182 332.501,377.848 333,381.5C 333.973,379.608 334.64,377.608 335,375.5C 335.167,376.333 335.333,377.167 335.5,378C 334.834,379.669 334.834,381.169 335.5,382.5C 334.833,382.833 334.167,383.167 333.5,383.5C 334.174,385.195 334.841,386.862 335.5,388.5C 336.128,396.752 336.128,405.085 335.5,413.5C 335.414,414.496 335.748,415.329 336.5,416C 335.804,420.134 335.137,424.3 334.5,428.5C 335.274,429.711 336.107,429.711 337,428.5C 336.963,433.3 337.13,437.967 337.5,442.5C 337.06,448.744 336.393,454.911 335.5,461C 336.197,463.709 336.53,466.376 336.5,469C 335.432,484.815 334.765,500.648 334.5,516.5C 335.67,521.071 337.337,525.405 339.5,529.5C 337.801,529.66 336.134,529.494 334.5,529C 334.833,528.667 335.167,528.333 335.5,528C 333.176,524.901 331.676,521.401 331,517.5C 330.5,484.502 330.333,451.502 330.5,418.5C 330.5,401.167 330.5,383.833 330.5,366.5C 331.314,364.369 331.814,362.036 332,359.5C 332.499,363.152 332.665,366.818 332.5,370.5 Z"/></g>
<g><path style="opacity:1" fill="#4c19d9" d="M 576.5,406.5 C 576.833,406.5 577.167,406.5 577.5,406.5C 577.667,444.168 577.5,481.835 577,519.5C 575.888,523.762 573.388,526.762 569.5,528.5C 566.236,529.324 562.902,529.658 559.5,529.5C 556.011,528.523 553.177,526.523 551,523.5C 546.259,516.088 540.759,509.255 534.5,503C 520.553,494.035 506.887,494.368 493.5,504C 487.5,510.333 481.5,516.667 475.5,523C 472.833,524.667 470.167,526.333 467.5,528C 464.607,529.149 461.607,529.649 458.5,529.5C 452.464,529.64 446.464,529.307 440.5,528.5C 437.243,527.538 434.243,526.038 431.5,524C 425.523,518.355 419.857,512.355 414.5,506C 395.468,491.936 378.135,493.77 362.5,511.5C 362.719,510.325 362.386,509.325 361.5,508.5C 358.608,508.547 355.941,509.38 353.5,511C 349.355,508.759 345.355,506.259 341.5,503.5C 342.5,502.167 343.5,500.833 344.5,499.5C 345.963,499.632 347.463,499.965 349,500.5C 350.059,500.37 350.892,499.87 351.5,499C 349.833,498.667 348.167,498.333 346.5,498C 348.167,496.667 349.833,495.333 351.5,494C 349.275,491.975 348.941,489.642 350.5,487C 352.725,485.869 355.058,485.036 357.5,484.5C 358.5,485.167 359.5,485.833 360.5,486.5C 362.819,485.936 365.153,485.436 367.5,485C 367.167,484.667 366.833,484.333 366.5,484C 368.256,483.798 369.922,483.298 371.5,482.5C 369.368,481.402 367.202,480.402 365,479.5C 364.28,481.255 363.113,482.089 361.5,482C 363.276,480.329 363.61,478.496 362.5,476.5C 364.256,476.64 365.922,476.14 367.5,475C 365.833,474.667 364.167,474.333 362.5,474C 365.801,472.682 368.801,470.848 371.5,468.5C 372.696,468.846 372.696,469.346 371.5,470C 372.167,470.167 372.833,470.333 373.5,470.5C 375.569,470.176 375.902,469.342 374.5,468C 375.9,466.562 377.567,465.729 379.5,465.5C 379.561,468.05 380.894,469.55 383.5,470C 382.167,470.667 382.167,471.333 383.5,472C 381.956,472.29 380.623,472.956 379.5,474C 380.931,474.465 382.097,475.299 383,476.5C 383.983,474.552 385.15,472.718 386.5,471C 385.833,470.667 385.167,470.333 384.5,470C 385.759,469.018 387.092,468.685 388.5,469C 388.377,471.211 388.377,473.378 388.5,475.5C 389.593,473.651 390.926,471.984 392.5,470.5C 392.291,469.914 391.957,469.414 391.5,469C 393.365,466.635 395.032,466.468 396.5,468.5C 395.572,470.586 394.738,472.586 394,474.5C 395.734,473.751 397.567,473.251 399.5,473C 401.125,472.147 401.458,471.147 400.5,470C 402.833,469.333 405.167,469.333 407.5,470C 405.833,470.333 404.167,470.667 402.5,471C 405.063,471.918 407.23,471.418 409,469.5C 409.893,470.711 410.726,470.711 411.5,469.5C 408.215,468.676 404.882,468.176 401.5,468C 402.833,467.333 402.833,466.667 401.5,466C 406.167,465.667 410.833,465.333 415.5,465C 414.831,462.672 414.831,460.005 415.5,457C 418.833,456.333 422.167,456.333 425.5,457C 427.635,458.381 429.968,459.381 432.5,460C 432.043,460.414 431.709,460.914 431.5,461.5C 432.948,462.354 434.281,463.354 435.5,464.5C 436.251,463.624 436.751,462.624 437,461.5C 438.617,462.536 438.784,463.703 437.5,465C 443.225,465.717 448.891,465.384 454.5,464C 453.289,463.107 453.289,462.274 454.5,461.5C 455.192,462.025 455.692,462.692 456,463.5C 460.01,463.041 463.843,462.041 467.5,460.5C 467.833,460.667 468.167,460.833 468.5,461C 466.526,464.211 463.859,465.211 460.5,464C 463.633,465.57 466.967,465.903 470.5,465C 473.512,462.443 476.845,461.943 480.5,463.5C 481.932,461.184 482.932,458.684 483.5,456C 485.313,455.386 485.647,455.719 484.5,457C 486.952,458.551 487.619,457.884 486.5,455C 488.663,452.109 491.163,451.942 494,454.5C 494.684,453.216 494.517,452.049 493.5,451C 494.047,450.075 494.713,449.242 495.5,448.5C 496.86,450.628 497.86,453.294 498.5,456.5C 498.167,457.833 497.833,459.167 497.5,460.5C 497.467,459.011 496.967,457.678 496,456.5C 495.727,458.101 495.227,459.601 494.5,461C 496.902,461.814 499.235,461.647 501.5,460.5C 501.023,459.522 500.357,458.689 499.5,458C 499.833,457.833 500.167,457.667 500.5,457.5C 503.832,460.071 507.165,460.071 510.5,457.5C 511.583,458.365 511.749,459.365 511,460.5C 506.883,462.228 507.383,463.728 512.5,465C 516.5,465.667 520.5,465.667 524.5,465C 527.544,464.641 527.878,463.974 525.5,463C 527.256,462.798 528.922,462.298 530.5,461.5C 529.975,460.808 529.308,460.308 528.5,460C 534.433,459.942 539.433,459.275 543.5,458C 543.451,460.046 543.785,462.213 544.5,464.5C 548.313,465.874 547.98,466.707 543.5,467C 545.736,469.267 548.403,470.934 551.5,472C 551.271,474.552 551.271,477.052 551.5,479.5C 552.768,478.572 554.101,478.405 555.5,479C 555.167,479.333 554.833,479.667 554.5,480C 556.256,480.202 557.922,480.702 559.5,481.5C 559.291,482.086 558.957,482.586 558.5,483C 563.348,483.547 563.682,484.88 559.5,487C 562.689,487.981 563.022,489.314 560.5,491C 561.167,491.333 561.833,491.667 562.5,492C 560.999,493.252 559.332,494.252 557.5,495C 555.874,497.628 553.874,499.961 551.5,502C 553.888,502.865 555.388,502.032 556,499.5C 558.253,499.946 560.753,500.112 563.5,500C 564.973,499.29 565.64,498.124 565.5,496.5C 566.552,496.351 567.552,496.517 568.5,497C 567.304,497.654 567.304,498.154 568.5,498.5C 569.167,498.167 569.833,497.833 570.5,497.5C 571.324,494.215 571.824,490.882 572,487.5C 572.333,487.833 572.667,488.167 573,488.5C 574.9,498.06 575.9,507.727 576,517.5C 576.5,481.835 576.667,446.168 576.5,410.5C 576.5,409.167 576.5,407.833 576.5,406.5 Z"/></g>
<g><path style="opacity:1" fill="#310d89" d="M 1540.5,468.5 C 1542.48,471.373 1542.81,474.373 1541.5,477.5C 1541.3,474.482 1540.96,471.482 1540.5,468.5 Z"/></g>
<g><path style="opacity:1" fill="#aa3df5" d="M 330.5,418.5 C 330.333,451.502 330.5,484.502 331,517.5C 331.676,521.401 333.176,524.901 335.5,528C 335.167,528.333 334.833,528.667 334.5,529C 336.134,529.494 337.801,529.66 339.5,529.5C 341.833,529.5 344.167,529.5 346.5,529.5C 333.101,533.134 325.101,528.134 322.5,514.5C 322.5,488.833 322.5,463.167 322.5,437.5C 323.329,430.679 323.829,423.679 324,416.5C 324.333,426.5 324.667,436.5 325,446.5C 325.333,445.5 325.667,444.5 326,443.5C 328.6,463.473 329.1,483.473 327.5,503.5C 328.154,505.115 328.654,506.782 329,508.5C 329.168,478.331 329.668,448.331 330.5,418.5 Z"/></g>
<g><path style="opacity:1" fill="#300f77" d="M 440.5,528.5 C 446.464,529.307 452.464,529.64 458.5,529.5C 456.19,530.164 453.69,530.497 451,530.5C 447.195,530.696 443.695,530.03 440.5,528.5 Z"/></g>
<g><path style="opacity:1" fill="#1d0c47" d="M 569.5,528.5 C 569.389,529.117 569.056,529.617 568.5,530C 565.304,530.805 562.304,530.638 559.5,529.5C 562.902,529.658 566.236,529.324 569.5,528.5 Z"/></g>
</svg>
